<svg class="na-svgbox" id="erroranim" image-rendering="auto" baseProfile="basic" version="1.1"
    x="0px" y="0px" width="80" height="80" xmlns="http://www.w3.org/2000/svg"
    xmlns:xlink="http://www.w3.org/1999/xlink">
    <defs>
        <g id="Layer18_0_FILL">
            <path fill="#DC3545" stroke="none"
                d="M77 24.4Q74 17.25 68.45 11.7 62.9 6.2 55.75 3.15 48.3 0 40.15 0 32 0 24.55 3.15 17.4 6.2 11.85 11.7 6.35 17.25 3.3 24.4 .15 31.85 .15 40 .15 48.15 3.3 55.6 6.35 62.8 11.85 68.3 17.4 73.85 24.55 76.9 32 80 40.15 80 48.3 80 55.75 76.9 62.9 73.85 68.45 68.3 74 62.8 77 55.6 80.15 48.15 80.15 40 80.15 31.85 77 24.4M52.15 29.7Q52.15 30.4 51.7 30.9L42.6 40 51.65 49.1Q51.7 49.1 51.8 49.25 52.25 49.75 52.2 50.5 52.15 51.2 51.65 51.65 51.1 52.1 50.4 52.05 49.7 52 49.25 51.45L40.15 42.35 31.05 51.45Q30.5 52 29.85 52 29.2 52 28.65 51.45 28.15 50.95 28.15 50.3 28.15 49.6 28.65 49.1L37.75 40 28.65 30.9Q28.15 30.4 28.15 29.7 28.15 29 28.65 28.5 29.15 28 29.85 28 30.5 28 31.05 28.5L40.15 37.6 49.3 28.5Q49.85 28 50.5 28 51.2 28 51.7 28.5 52.15 29 52.15 29.7Z" />
        </g>
    </defs>
    <g id="Cena-1r1" overflow="visible">
        <g display="none">
            <g id="Layer16_0_FILL">
                <path fill="#DC3545" stroke="none"
                    d="M77 24.4Q74 17.25 68.45 11.7 62.9 6.2 55.75 3.15 48.3 0 40.15 0 32 0 24.55 3.15 17.4 6.2 11.85 11.7 6.35 17.25 3.3 24.4 .15 31.85 .15 40 .15 48.15 3.3 55.6 6.35 62.8 11.85 68.3 17.4 73.85 24.55 76.9 32 80 40.15 80 48.3 80 55.75 76.9 62.9 73.85 68.45 68.3 74 62.8 77 55.6 80.15 48.15 80.15 40 80.15 31.85 77 24.4M54.55 25.65Q55 26.2 55 26.85 55 27.55 54.55 28.05L42.6 40 49.35 46.8 49.4 46.8 51.65 49.1Q51.7 49.1 51.75 49.2L54.45 51.95Q54.55 51.95 54.65 52.1 55.1 52.6 55.05 53.3 55 54.05 54.45 54.5 53.95 54.9 53.25 54.9 52.55 54.8 52.1 54.3L49.4 51.65Q49.3 51.55 49.25 51.45L40.15 42.35 28.2 54.3Q27.7 54.8 27 54.8 26.35 54.8 25.8 54.3 25.3 53.8 25.3 53.1 25.3 52.45 25.8 51.95L28.5 49.25Q28.55 49.2 28.65 49.1L37.75 40 25.8 28.05Q25.3 27.55 25.3 26.85 25.3 26.2 25.8 25.65 26.35 25.15 27 25.15 27.7 25.15 28.2 25.65L40.15 37.6 52.15 25.65Q52.65 25.15 53.35 25.15 54.05 25.15 54.55 25.65Z" />
            </g>
            <animate attributeName="display" fill="freeze" repeatCount="1" dur="0.75s"
                keyTimes="0;.889;.944;1" values="none;inline;none;none" />
        </g>
        <g display="none">
            <g id="Layer15_0_FILL">
                <path fill="#DC3545" stroke="none"
                    d="M77 24.4Q74 17.25 68.45 11.7 62.9 6.2 55.75 3.15 48.3 0 40.15 0 32 0 24.55 3.15 17.4 6.2 11.85 11.7 6.35 17.25 3.3 24.4 .15 31.85 .15 40 .15 48.15 3.3 55.6 6.35 62.8 11.85 68.3 17.4 73.85 24.55 76.9 32 80 40.15 80 48.3 80 55.75 76.9 62.9 73.85 68.45 68.3 74 62.8 77 55.6 80.15 48.15 80.15 40 80.15 31.85 77 24.4M51.8 26.7Q52.45 26.7 53 27.25 53.45 27.75 53.45 28.4 53.45 29.1 53 29.6L42.6 40 49.05 46.5 49.4 46.8 51.65 49.1Q51.7 49.1 51.75 49.2L53.05 50.5Q53.1 50.5 53.1 50.55 53.5 51.05 53.45 51.75 53.4 52.45 52.9 52.9 52.4 53.35 51.7 53.3 51.1 53.25 50.7 52.9L49.4 51.65Q49.3 51.55 49.25 51.45L40.15 42.35 29.75 52.75Q29.25 53.25 28.55 53.25 27.9 53.25 27.35 52.75 26.85 52.25 26.85 51.55 26.85 50.95 27.25 50.5 27.3 50.45 27.35 50.35L28.5 49.25Q28.55 49.15 28.65 49.1L37.75 40 27.35 29.6Q26.85 29.1 26.85 28.4 26.85 27.75 27.35 27.25 27.9 26.7 28.55 26.7 29.25 26.7 29.75 27.2L40.15 37.6 47.5 30.3Q47.95 29.85 48.4 29.45L48.9 28.9Q49.65 28.15 50.4 27.45L50.6 27.25Q51.1 26.7 51.8 26.7Z" />
            </g>
            <animate attributeName="display" fill="freeze" repeatCount="1" dur="0.75s"
                keyTimes="0;.833;.889;.944;1" values="none;inline;none;inline;inline" />
        </g>
        <g display="none">
            <g id="Layer14_0_FILL">
                <path fill="#DC3545" stroke="none"
                    d="M77 24.4Q74 17.25 68.45 11.7 62.9 6.2 55.75 3.15 48.3 0 40.15 0 32 0 24.55 3.15 17.4 6.2 11.85 11.7 6.35 17.25 3.3 24.4 .15 31.85 .15 40 .15 48.15 3.3 55.6 6.35 62.8 11.85 68.3 17.4 73.85 24.55 76.9 32 80 40.15 80 48.3 80 55.75 76.9 62.9 73.85 68.45 68.3 74 62.8 77 55.6 80.15 48.15 80.15 40 80.15 31.85 77 24.4M47.65 30.85Q48.35 30.85 48.85 31.35 49.3 31.85 49.3 32.55 49.3 33.2 48.85 33.75L48.7 33.95Q48.4 34.2 48.15 34.5L42.6 40 48.95 46.4Q49.4 46.95 49.35 47.65 49.3 48.35 48.8 48.8 48.3 49.25 47.55 49.2 47 49.15 46.55 48.8L40.15 42.35 35.45 47.1Q34.65 47.85 33.85 48.65 33.35 49.15 32.7 49.15 32 49.15 31.45 48.65 30.95 48.15 30.95 47.45 30.95 46.85 31.35 46.35 31.4 46.3 31.45 46.25L37.75 40 31.45 33.7Q31 33.2 31 32.55 31 31.85 31.5 31.35 32 30.85 32.7 30.85 33.35 30.85 33.85 31.3L40.15 37.6 45 32.8 45.05 32.8 46.5 31.35Q47 30.85 47.65 30.85Z" />
            </g>
            <animate attributeName="display" fill="freeze" repeatCount="1" dur="0.75s"
                keyTimes="0;.778;.833;1" values="none;inline;none;none" />
        </g>
        <g display="none">
            <g id="Layer13_0_FILL">
                <path fill="#DC3545" stroke="none"
                    d="M77 24.4Q74 17.25 68.45 11.7 62.9 6.2 55.75 3.15 48.3 0 40.15 0 32 0 24.55 3.15 17.4 6.2 11.85 11.7 6.35 17.25 3.3 24.4 .15 31.85 .15 40 .15 48.15 3.3 55.6 6.35 62.8 11.85 68.3 17.4 73.85 24.55 76.9 32 80 40.15 80 48.3 80 55.75 76.9 62.9 73.85 68.45 68.3 74 62.8 77 55.6 80.15 48.15 80.15 40 80.15 31.85 77 24.4M44.55 33.95Q45.25 33.95 45.75 34.45 46.2 35 46.2 35.65 46.2 36.35 45.75 36.85L42.6 40 45 42.4 45 42.45 45.65 43.15 45.7 43.15 45.85 43.25 45.85 43.3Q46.3 43.8 46.25 44.5 46.2 45.25 45.65 45.7 45.15 46.15 44.45 46.1 43.85 46.05 43.45 45.65L40.15 42.35 38.55 43.95Q38.35 44.15 38.15 44.35L36.95 45.55Q36.45 46.05 35.8 46.05 35.15 46.05 34.6 45.5 34.1 45 34.1 44.3 34.1 43.75 34.5 43.25 34.55 43.2 34.6 43.15L36.65 41.05 36.7 41.1 37.75 40 34.55 36.8Q34.1 36.3 34.1 35.65 34.1 35 34.6 34.45 35.1 33.95 35.8 33.95 36.45 33.95 36.95 34.4L40.15 37.6 42.9 34.85 42.9 34.9 43.35 34.45Q43.85 33.95 44.55 33.95Z" />
            </g>
            <animate attributeName="display" fill="freeze" repeatCount="1" dur="0.75s"
                keyTimes="0;.722;.778;1" values="none;inline;none;none" />
        </g>
        <g display="none">
            <g id="Layer12_0_FILL">
                <path fill="#DC3545" stroke="none"
                    d="M68.45 11.7Q62.9 6.2 55.75 3.15 48.3 0 40.15 0 32 0 24.55 3.15 17.4 6.2 11.85 11.7 6.35 17.25 3.3 24.4 .15 31.85 .15 40 .15 48.15 3.3 55.6 6.35 62.8 11.85 68.3 17.4 73.85 24.55 76.9 32 80 40.15 80 48.3 80 55.75 76.9 62.9 73.85 68.45 68.3 74 62.8 77 55.6 80.15 48.15 80.15 40 80.15 31.85 77 24.4 74 17.25 68.45 11.7M42.35 39.95Q42.35 40.9 41.7 41.55 41.05 42.2 40.15 42.2 39.2 42.2 38.55 41.55 37.9 40.9 37.9 39.95 37.9 39.05 38.55 38.4 39.2 37.75 40.15 37.75 41.05 37.75 41.7 38.4 42.35 39.05 42.35 39.95Z" />
            </g>
            <animate attributeName="display" fill="freeze" repeatCount="1" dur="0.75s"
                keyTimes="0;.667;.722;1" values="none;inline;none;none" />
        </g>
        <g display="none">
            <g id="Layer11_0_FILL">
                <path fill="#DC3545" stroke="none"
                    d="M68.45 11.7Q62.9 6.2 55.75 3.15 48.3 0 40.15 0 32 0 24.55 3.15 17.4 6.2 11.85 11.7 6.35 17.25 3.3 24.4 .15 31.85 .15 40 .15 48.15 3.3 55.6 6.35 62.8 11.85 68.3 17.4 73.85 24.55 76.9 32 80 40.15 80 48.3 80 55.75 76.9 62.9 73.85 68.45 68.3 74 62.8 77 55.6 80.15 48.15 80.15 40 80.15 31.85 77 24.4 74 17.25 68.45 11.7Z" />
            </g>
            <animate attributeName="display" fill="freeze" repeatCount="1" dur="0.75s"
                keyTimes="0;.611;.667;1" values="none;inline;none;none" />
        </g>
        <g display="none">
            <g id="Layer10_0_FILL">
                <path fill="#DC3545" stroke="none"
                    d="M68.45 11.7Q62.9 6.2 55.75 3.15 48.3 0 40.15 0 32 0 24.55 3.15 17.4 6.2 11.85 11.7 6.35 17.25 3.3 24.4 .15 31.85 .15 40 .15 48.15 3.3 55.6 6.35 62.8 11.85 68.3 17.4 73.85 24.55 76.9 32 80 40.15 80 48.3 80 55.75 76.9 62.9 73.85 68.45 68.3 74 62.8 77 55.6 80.15 48.15 80.15 40 80.15 31.85 77 24.4 74 17.25 68.45 11.7M66 14.15Q71.1 19.25 73.85 25.8 76.75 32.6 76.75 40 76.75 47.45 73.85 54.25 71.1 60.8 66 65.85 60.95 70.95 54.4 73.75 47.55 76.6 40.15 76.6 32.7 76.6 25.95 73.75 19.35 70.95 14.3 65.85 9.2 60.8 6.45 54.25 3.55 47.45 3.55 40 3.55 32.6 6.45 25.8 9.2 19.2 14.3 14.15 19.35 9.1 25.95 6.3 32.7 3.4 40.15 3.4 47.55 3.4 54.4 6.3 60.95 9.1 66 14.15Z" />
                <path fill="#DC3545" fill-opacity=".666" stroke="none"
                    d="M73.85 25.8Q71.1 19.25 66 14.15 60.95 9.1 54.4 6.3 47.55 3.4 40.15 3.4 32.7 3.4 25.95 6.3 19.35 9.1 14.3 14.15 9.2 19.2 6.45 25.8 3.55 32.6 3.55 40 3.55 47.45 6.45 54.25 9.2 60.8 14.3 65.85 19.35 70.95 25.95 73.75 32.7 76.6 40.15 76.6 47.55 76.6 54.4 73.75 60.95 70.95 66 65.85 71.1 60.8 73.85 54.25 76.75 47.45 76.75 40 76.75 32.6 73.85 25.8Z" />
            </g>
            <animate attributeName="display" fill="freeze" repeatCount="1" dur="0.75s"
                keyTimes="0;.556;.611;1" values="none;inline;none;none" />
        </g>
        <g display="none">
            <g id="Layer9_0_FILL">
                <path fill="#DC3545" stroke="none"
                    d="M68.45 11.7Q62.9 6.2 55.75 3.15 48.3 0 40.15 0 32 0 24.55 3.15 17.4 6.2 11.85 11.7 6.35 17.25 3.3 24.4 .15 31.85 .15 40 .15 48.15 3.3 55.6 6.35 62.8 11.85 68.3 17.4 73.85 24.55 76.9 32 80 40.15 80 48.3 80 55.75 76.9 62.9 73.85 68.45 68.3 74 62.8 77 55.6 80.15 48.15 80.15 40 80.15 31.85 77 24.4 74 17.25 68.45 11.7M66 14.15Q71.1 19.25 73.85 25.8 76.75 32.6 76.75 40 76.75 47.45 73.85 54.25 71.1 60.8 66 65.85 60.95 70.95 54.4 73.75 47.55 76.6 40.15 76.6 32.7 76.6 25.95 73.75 19.35 70.95 14.3 65.85 9.2 60.8 6.45 54.25 3.55 47.45 3.55 40 3.55 32.6 6.45 25.8 9.2 19.2 14.3 14.15 19.35 9.1 25.95 6.3 32.7 3.4 40.15 3.4 47.55 3.4 54.4 6.3 60.95 9.1 66 14.15Z" />
                <path fill="#DC3545" fill-opacity=".333" stroke="none"
                    d="M73.85 25.8Q71.1 19.25 66 14.15 60.95 9.1 54.4 6.3 47.55 3.4 40.15 3.4 32.7 3.4 25.95 6.3 19.35 9.1 14.3 14.15 9.2 19.2 6.45 25.8 3.55 32.6 3.55 40 3.55 47.45 6.45 54.25 9.2 60.8 14.3 65.85 19.35 70.95 25.95 73.75 32.7 76.6 40.15 76.6 47.55 76.6 54.4 73.75 60.95 70.95 66 65.85 71.1 60.8 73.85 54.25 76.75 47.45 76.75 40 76.75 32.6 73.85 25.8Z" />
            </g>
            <animate attributeName="display" fill="freeze" repeatCount="1" dur="0.75s"
                keyTimes="0;.5;.556;1" values="none;inline;none;none" />
        </g>
        <g display="none">
            <g id="Layer8_0_FILL">
                <path fill="#DC3545" stroke="none"
                    d="M68.3 11.7Q62.75 6.15 55.6 3.15 48.15 0 40 0 31.85 0 24.4 3.15 17.25 6.15 11.7 11.7 6.15 17.25 3.15 24.4 0 31.85 0 40 0 48.15 3.15 55.6 6.15 62.75 11.7 68.3 17.25 73.85 24.4 76.85 31.85 80 40 80 48.15 80 55.6 76.85 62.75 73.85 68.3 68.3 73.85 62.75 76.85 55.6 80 48.15 80 40 80 31.85 76.85 24.4 73.85 17.25 68.3 11.7M65.85 14.15Q70.9 19.2 73.7 25.75 76.6 32.6 76.6 40 76.6 47.45 73.7 54.2 70.9 60.8 65.85 65.85 60.8 70.95 54.2 73.7 47.4 76.6 40 76.6 32.55 76.6 25.75 73.7 19.2 70.95 14.15 65.85 9.05 60.8 6.3 54.2 3.4 47.45 3.4 40 3.4 32.55 6.3 25.75 9.05 19.2 14.15 14.15 19.2 9.05 25.75 6.3 32.55 3.4 40 3.4 47.4 3.4 54.2 6.3 60.8 9.1 65.85 14.15Z" />
            </g>
            <animate attributeName="display" fill="freeze" repeatCount="1" dur="0.75s"
                keyTimes="0;.444;.5;1" values="none;inline;none;none" />
        </g>
        <g display="none">
            <g id="Layer7_0_FILL">
                <path fill="#DC3545" stroke="none"
                    d="M73.7 25.75Q76.6 32.6 76.6 40 76.6 47.45 73.7 54.2 70.9 60.8 65.85 65.85 60.8 70.95 54.2 73.7 47.4 76.6 40 76.6 32.55 76.6 25.75 73.7 19.2 70.95 14.15 65.85 9.05 60.8 6.3 54.2 3.4 47.45 3.4 40 3.4 32.55 6.3 25.75 9.05 19.2 14.15 14.15 19.2 9.05 25.75 6.3 32.55 3.4 40 3.4L40 0Q31.85 0 24.4 3.15 17.25 6.15 11.7 11.7 6.15 17.25 3.15 24.4 0 31.85 0 40 0 48.15 3.15 55.6 6.15 62.75 11.7 68.3 17.25 73.85 24.4 76.85 31.85 80 40 80 48.15 80 55.6 76.85 62.75 73.85 68.3 68.3 73.85 62.75 76.85 55.6 80 48.15 80 40 80 31.85 76.85 24.4 73.85 17.25 68.3 11.7L65.85 14.15Q70.9 19.2 73.7 25.75Z" />
            </g>
            <animate attributeName="display" fill="freeze" repeatCount="1" dur="0.75s"
                keyTimes="0;.389;.444;1" values="none;inline;none;none" />
        </g>
        <g display="none">
            <g id="Layer6_0_FILL">
                <path fill="#DC3545" stroke="none"
                    d="M80 40L76.6 40Q76.6 47.45 73.7 54.2 70.9 60.8 65.85 65.85 60.8 70.95 54.2 73.7 47.4 76.6 40 76.6 32.55 76.6 25.75 73.7 19.2 70.95 14.15 65.85 9.05 60.8 6.3 54.2 3.4 47.45 3.4 40 3.4 32.55 6.3 25.75 9.05 19.2 14.15 14.15 19.2 9.05 25.75 6.3 32.55 3.4 40 3.4L40 0Q31.85 0 24.4 3.15 17.25 6.15 11.7 11.7 6.15 17.25 3.15 24.4 0 31.85 0 40 0 48.15 3.15 55.6 6.15 62.75 11.7 68.3 17.25 73.85 24.4 76.85 31.85 80 40 80 48.15 80 55.6 76.85 62.75 73.85 68.3 68.3 73.85 62.75 76.85 55.6 80 48.15 80 40Z" />
            </g>
            <animate attributeName="display" fill="freeze" repeatCount="1" dur="0.75s"
                keyTimes="0;.333;.389;1" values="none;inline;none;none" />
        </g>
        <g display="none">
            <g id="Layer5_0_FILL">
                <path fill="#DC3545" stroke="none"
                    d="M25.75 6.3Q32.55 3.4 40 3.4L40 0Q31.85 0 24.4 3.15 17.25 6.15 11.7 11.7 6.15 17.25 3.15 24.4 0 31.85 0 40 0 48.15 3.15 55.6 6.15 62.75 11.7 68.3 17.25 73.85 24.4 76.85 31.85 80 40 80 48.15 80 55.6 76.85 62.75 73.85 68.3 68.3L65.85 65.85Q60.8 70.95 54.2 73.7 47.4 76.6 40 76.6 32.55 76.6 25.75 73.7 19.2 70.95 14.15 65.85 9.05 60.8 6.3 54.2 3.4 47.45 3.4 40 3.4 32.55 6.3 25.75 9.05 19.2 14.15 14.15 19.2 9.05 25.75 6.3Z" />
            </g>
            <animate attributeName="display" fill="freeze" repeatCount="1" dur="0.75s"
                keyTimes="0;.278;.333;1" values="none;inline;none;none" />
        </g>
        <g display="none">
            <g id="Layer4_0_FILL">
                <path fill="#DB4226" stroke="none"
                    d="M25.75 6.3Q32.55 3.4 40 3.4L40 0Q31.85 0 24.4 3.15 17.25 6.15 11.7 11.7 6.15 17.25 3.15 24.4 0 31.85 0 40 0 48.15 3.15 55.6 6.15 62.75 11.7 68.3 17.25 73.85 24.4 76.85 31.85 80 40 80L40 76.6Q32.55 76.6 25.75 73.7 19.2 70.95 14.15 65.85 9.05 60.8 6.3 54.2 3.4 47.45 3.4 40 3.4 32.55 6.3 25.75 9.05 19.2 14.15 14.15 19.2 9.05 25.75 6.3Z" />
            </g>
            <animate attributeName="display" fill="freeze" repeatCount="1" dur="0.75s"
                keyTimes="0;.222;.278;1" values="none;inline;none;none" />
        </g>
        <g display="none">
            <g id="Layer3_0_FILL">
                <path fill="#DC3545" stroke="none"
                    d="M25.75 6.3Q32.55 3.4 40 3.4L40 0Q31.85 0 24.4 3.15 17.25 6.15 11.7 11.7 6.15 17.25 3.15 24.4 0 31.85 0 40 0 48.15 3.15 55.6 6.15 62.75 11.7 68.3L14.15 65.85Q9.05 60.8 6.3 54.2 3.4 47.45 3.4 40 3.4 32.55 6.3 25.75 9.05 19.2 14.15 14.15 19.2 9.05 25.75 6.3Z" />
            </g>
            <animate attributeName="display" fill="freeze" repeatCount="1" dur="0.75s"
                keyTimes="0;.167;.222;1" values="none;inline;none;none" />
        </g>
        <g display="none">
            <g id="Layer2_0_FILL">
                <path fill="#DC3545" stroke="none"
                    d="M25.75 6.3Q32.55 3.4 40 3.4L40 0Q31.85 0 24.4 3.15 17.25 6.15 11.7 11.7 6.15 17.25 3.15 24.4 0 31.85 0 40L3.4 40Q3.4 32.55 6.3 25.75 9.05 19.2 14.15 14.15 19.2 9.05 25.75 6.3Z" />
            </g>
            <animate attributeName="display" fill="freeze" repeatCount="1" dur="0.75s"
                keyTimes="0;.111;.167;1" values="none;inline;none;none" />
        </g>
        <g display="none">
            <g id="Layer1_0_FILL">
                <path fill="#DC3545" stroke="none"
                    d="M40 0Q31.85 0 24.4 3.15 17.25 6.15 11.7 11.7L14.15 14.15Q19.2 9.05 25.75 6.3 32.55 3.4 40 3.4L40 0Z" />
            </g>
            <animate attributeName="display" fill="freeze" repeatCount="1" dur="0.75s"
                keyTimes="0;.056;.111;1" values="none;inline;none;none" />
        </g>
        <g>
            <animate attributeName="display" fill="freeze" repeatCount="1" dur="0.75s"
                keyTimes="0;.056;1" values="inline;none;none" />
        </g>
    </g>
</svg>