<svg class="na-svgbox" id="infoanim" image-rendering="auto" baseProfile="basic" version="1.1"
    x="0px" y="0px" width="80" height="80" xmlns="http://www.w3.org/2000/svg"
    xmlns:xlink="http://www.w3.org/1999/xlink">
    <defs>
        <g id="Layer19_0_FILL">
            <path fill="#17A2B8" stroke="none"
                d="M80.15 40Q80.15 31.85 77 24.4 74 17.25 68.45 11.7 62.9 6.2 55.75 3.15 48.3 0 40.15 0 32 0 24.55 3.15 17.4 6.2 11.85 11.7 6.35 17.25 3.3 24.4 .15 31.85 .15 40 .15 48.15 3.3 55.6 6.35 62.8 11.85 68.3 17.4 73.85 24.55 76.9 32 80 40.15 80 48.3 80 55.75 76.9 62.9 73.85 68.45 68.3 74 62.8 77 55.6 80.15 48.15 80.15 40M42.9 22.95Q44.05 24.05 44.05 25.65 44.05 27.25 42.9 28.4 41.8 29.5 40.2 29.5 38.6 29.5 37.5 28.4 36.4 27.25 36.4 25.65 36.4 24.1 37.5 22.95 38.6 21.85 40.2 21.85 41.8 21.85 42.9 22.95M41.4 36.15Q41.9 36.6 41.9 37.35L41.9 56.5Q41.9 57.15 41.4 57.7 40.9 58.2 40.2 58.2 39.5 58.2 39 57.7 38.5 57.15 38.5 56.5L38.5 37.35Q38.5 36.65 39 36.15 39.5 35.65 40.2 35.65 40.9 35.65 41.4 36.15Z" />
        </g>
    </defs>
    <g id="Cena-1r1" overflow="visible">
        <g display="none">
            <g id="Layer18_0_FILL">
                <path fill="#17A2B8" stroke="none"
                    d="M80.15 40Q80.15 31.85 77 24.4 74 17.25 68.45 11.7 62.9 6.2 55.75 3.15 48.3 0 40.15 0 32 0 24.55 3.15 17.4 6.2 11.85 11.7 6.35 17.25 3.3 24.4 .15 31.85 .15 40 .15 48.15 3.3 55.6 6.35 62.8 11.85 68.3 17.4 73.85 24.55 76.9 32 80 40.15 80 48.3 80 55.75 76.9 62.9 73.85 68.45 68.3 74 62.8 77 55.6 80.15 48.15 80.15 40M43.6 22.3Q45 23.65 45 25.65 45 27.65 43.6 29.05 42.2 30.4 40.2 30.4 38.25 30.4 36.85 29.05 35.45 27.65 35.45 25.65 35.45 23.7 36.85 22.3 38.25 20.9 40.2 20.9 42.2 20.9 43.6 22.3M41.4 36.15Q41.9 36.6 41.9 37.35L41.9 56.5Q41.9 57.15 41.4 57.7 40.9 58.2 40.2 58.2 39.5 58.2 39 57.7 38.5 57.15 38.5 56.5L38.5 37.35Q38.5 36.65 39 36.15 39.5 35.65 40.2 35.65 40.9 35.65 41.4 36.15Z" />
            </g>
            <animate attributeName="display" fill="freeze" repeatCount="1" dur="0.792s"
                keyTimes="0;.947;1" values="none;inline;inline" />
        </g>
        <g display="none">
            <g id="Layer17_0_FILL">
                <path fill="#17A2B8" stroke="none"
                    d="M80.15 40Q80.15 31.85 77 24.4 74 17.25 68.45 11.7 62.9 6.2 55.75 3.15 48.3 0 40.15 0 32 0 24.55 3.15 17.4 6.2 11.85 11.7 6.35 17.25 3.3 24.4 .15 31.85 .15 40 .15 48.15 3.3 55.6 6.35 62.8 11.85 68.3 17.4 73.85 24.55 76.9 32 80 40.15 80 48.3 80 55.75 76.9 62.9 73.85 68.45 68.3 74 62.8 77 55.6 80.15 48.15 80.15 40M42.9 22.95Q44.05 24.05 44.05 25.65 44.05 27.25 42.9 28.4 41.8 29.5 40.2 29.5 38.6 29.5 37.5 28.4 36.4 27.25 36.4 25.65 36.4 24.1 37.5 22.95 38.6 21.85 40.2 21.85 41.8 21.85 42.9 22.95M41.4 36.15Q41.9 36.6 41.9 37.35L41.9 56.5Q41.9 57.15 41.4 57.7 40.9 58.2 40.2 58.2 39.5 58.2 39 57.7 38.5 57.15 38.5 56.5L38.5 37.35Q38.5 36.65 39 36.15 39.5 35.65 40.2 35.65 40.9 35.65 41.4 36.15Z" />
            </g>
            <animate attributeName="display" fill="freeze" repeatCount="1" dur="0.792s"
                keyTimes="0;.895;.947;1" values="none;inline;none;none" />
        </g>
        <g display="none">
            <g id="Layer16_0_FILL">
                <path fill="#17A2B8" stroke="none"
                    d="M68.45 11.7Q62.9 6.2 55.75 3.15 48.3 0 40.15 0 32 0 24.55 3.15 17.4 6.2 11.85 11.7 6.35 17.25 3.3 24.4 .15 31.85 .15 40 .15 48.15 3.3 55.6 6.35 62.8 11.85 68.3 17.4 73.85 24.55 76.9 32 80 40.15 80 48.3 80 55.75 76.9 62.9 73.85 68.45 68.3 74 62.8 77 55.6 80.15 48.15 80.15 40 80.15 31.85 77 24.4 74 17.25 68.45 11.7M41.05 25.65Q41.05 26.05 40.8 26.3 40.55 26.5 40.2 26.5 39.85 26.5 39.6 26.3 39.35 26.05 39.35 25.65 39.35 25.35 39.6 25.1 39.85 24.85 40.2 24.85 40.55 24.85 40.8 25.1 41.05 25.3 41.05 25.65M41.4 36.15Q41.9 36.6 41.9 37.35L41.9 56.5Q41.9 57.15 41.4 57.7 40.9 58.2 40.2 58.2 39.5 58.2 39 57.7 38.5 57.15 38.5 56.5L38.5 37.35Q38.5 36.65 39 36.15 39.5 35.65 40.2 35.65 40.9 35.65 41.4 36.15Z" />
            </g>
            <animate attributeName="display" fill="freeze" repeatCount="1" dur="0.792s"
                keyTimes="0;.842;.895;1" values="none;inline;none;none" />
        </g>
        <g display="none">
            <g id="Layer15_0_FILL">
                <path fill="#17A2B8" stroke="none"
                    d="M68.45 11.7Q62.9 6.2 55.75 3.15 48.3 0 40.15 0 32 0 24.55 3.15 17.4 6.2 11.85 11.7 6.35 17.25 3.3 24.4 .15 31.85 .15 40 .15 48.15 3.3 55.6 6.35 62.8 11.85 68.3 17.4 73.85 24.55 76.9 32 80 40.15 80 48.3 80 55.75 76.9 62.9 73.85 68.45 68.3 74 62.8 77 55.6 80.15 48.15 80.15 40 80.15 31.85 77 24.4 74 17.25 68.45 11.7M41.4 36.15Q41.9 36.6 41.9 37.35L41.9 59.6Q41.9 60.3 41.4 60.8 40.9 61.3 40.2 61.3 39.5 61.3 39 60.8 38.5 60.3 38.5 59.6L38.5 37.35Q38.5 36.65 39 36.15 39.5 35.65 40.2 35.65 40.9 35.65 41.4 36.15Z" />
            </g>
            <animate attributeName="display" fill="freeze" repeatCount="1" dur="0.792s"
                keyTimes="0;.789;.842;1" values="none;inline;none;none" />
        </g>
        <g display="none">
            <g id="Layer14_0_FILL">
                <path fill="#17A2B8" stroke="none"
                    d="M68.45 11.7Q62.9 6.2 55.75 3.15 48.3 0 40.15 0 32 0 24.55 3.15 17.4 6.2 11.85 11.7 6.35 17.25 3.3 24.4 .15 31.85 .15 40 .15 48.15 3.3 55.6 6.35 62.8 11.85 68.3 17.4 73.85 24.55 76.9 32 80 40.15 80 48.3 80 55.75 76.9 62.9 73.85 68.45 68.3 74 62.8 77 55.6 80.15 48.15 80.15 40 80.15 31.85 77 24.4 74 17.25 68.45 11.7M41.4 42.35Q41.9 42.85 41.9 43.55L41.9 59.6Q41.9 60.3 41.4 60.8 40.9 61.3 40.2 61.3 39.5 61.3 39 60.8 38.5 60.3 38.5 59.6L38.5 43.55Q38.5 42.85 39 42.35 39.5 41.85 40.2 41.85 40.9 41.85 41.4 42.35Z" />
            </g>
            <animate attributeName="display" fill="freeze" repeatCount="1" dur="0.792s"
                keyTimes="0;.737;.789;1" values="none;inline;none;none" />
        </g>
        <g display="none">
            <g id="Layer13_0_FILL">
                <path fill="#17A2B8" stroke="none"
                    d="M68.45 11.7Q62.9 6.2 55.75 3.15 48.3 0 40.15 0 32 0 24.55 3.15 17.4 6.2 11.85 11.7 6.35 17.25 3.3 24.4 .15 31.85 .15 40 .15 48.15 3.3 55.6 6.35 62.8 11.85 68.3 17.4 73.85 24.55 76.9 32 80 40.15 80 48.3 80 55.75 76.9 62.9 73.85 68.45 68.3 74 62.8 77 55.6 80.15 48.15 80.15 40 80.15 31.85 77 24.4 74 17.25 68.45 11.7M41.4 47.05Q41.9 47.55 41.9 48.2L41.9 59.6Q41.9 60.3 41.4 60.8 40.9 61.3 40.2 61.3 39.5 61.3 39 60.8 38.5 60.3 38.5 59.6L38.5 48.2Q38.5 47.55 39 47.05 39.5 46.55 40.2 46.55 40.9 46.55 41.4 47.05Z" />
            </g>
            <animate attributeName="display" fill="freeze" repeatCount="1" dur="0.792s"
                keyTimes="0;.684;.737;1" values="none;inline;none;none" />
        </g>
        <g display="none">
            <g id="Layer12_0_FILL">
                <path fill="#17A2B8" stroke="none"
                    d="M68.45 11.7Q62.9 6.2 55.75 3.15 48.3 0 40.15 0 32 0 24.55 3.15 17.4 6.2 11.85 11.7 6.35 17.25 3.3 24.4 .15 31.85 .15 40 .15 48.15 3.3 55.6 6.35 62.8 11.85 68.3 17.4 73.85 24.55 76.9 32 80 40.15 80 48.3 80 55.75 76.9 62.9 73.85 68.45 68.3 74 62.8 77 55.6 80.15 48.15 80.15 40 80.15 31.85 77 24.4 74 17.25 68.45 11.7M40.2 61.3Q39.5 61.3 39 60.8 38.5 60.3 38.5 59.6L38.5 59.45Q38.5 58.8 39 58.3 39.5 57.8 40.2 57.8 40.9 57.8 41.4 58.3 41.9 58.75 41.9 59.45L41.9 59.6Q41.9 60.3 41.4 60.8 40.9 61.3 40.2 61.3Z" />
            </g>
            <animate attributeName="display" fill="freeze" repeatCount="1" dur="0.792s"
                keyTimes="0;.632;.684;1" values="none;inline;none;none" />
        </g>
        <g display="none">
            <g id="Layer11_0_FILL">
                <path fill="#17A2B8" stroke="none"
                    d="M68.45 11.7Q62.9 6.2 55.75 3.15 48.3 0 40.15 0 32 0 24.55 3.15 17.4 6.2 11.85 11.7 6.35 17.25 3.3 24.4 .15 31.85 .15 40 .15 48.15 3.3 55.6 6.35 62.8 11.85 68.3 17.4 73.85 24.55 76.9 32 80 40.15 80 48.3 80 55.75 76.9 62.9 73.85 68.45 68.3 74 62.8 77 55.6 80.15 48.15 80.15 40 80.15 31.85 77 24.4 74 17.25 68.45 11.7Z" />
            </g>
            <animate attributeName="display" fill="freeze" repeatCount="1" dur="0.792s"
                keyTimes="0;.579;.632;1" values="none;inline;none;none" />
        </g>
        <g display="none">
            <g id="Layer10_0_FILL">
                <path fill="#17A2B8" stroke="none"
                    d="M68.45 11.7Q62.9 6.2 55.75 3.15 48.3 0 40.15 0 32 0 24.55 3.15 17.4 6.2 11.85 11.7 6.35 17.25 3.3 24.4 .15 31.85 .15 40 .15 48.15 3.3 55.6 6.35 62.8 11.85 68.3 17.4 73.85 24.55 76.9 32 80 40.15 80 48.3 80 55.75 76.9 62.9 73.85 68.45 68.3 74 62.8 77 55.6 80.15 48.15 80.15 40 80.15 31.85 77 24.4 74 17.25 68.45 11.7M66 14.15Q71.1 19.25 73.85 25.8 76.75 32.6 76.75 40 76.75 47.45 73.85 54.25 71.1 60.8 66 65.85 60.95 70.95 54.4 73.75 47.55 76.6 40.15 76.6 32.7 76.6 25.95 73.75 19.35 70.95 14.3 65.85 9.2 60.8 6.45 54.25 3.55 47.45 3.55 40 3.55 32.6 6.45 25.8 9.2 19.2 14.3 14.15 19.35 9.1 25.95 6.3 32.7 3.4 40.15 3.4 47.55 3.4 54.4 6.3 60.95 9.1 66 14.15Z" />
                <path fill="#17A2B8" fill-opacity=".666" stroke="none"
                    d="M73.85 25.8Q71.1 19.25 66 14.15 60.95 9.1 54.4 6.3 47.55 3.4 40.15 3.4 32.7 3.4 25.95 6.3 19.35 9.1 14.3 14.15 9.2 19.2 6.45 25.8 3.55 32.6 3.55 40 3.55 47.45 6.45 54.25 9.2 60.8 14.3 65.85 19.35 70.95 25.95 73.75 32.7 76.6 40.15 76.6 47.55 76.6 54.4 73.75 60.95 70.95 66 65.85 71.1 60.8 73.85 54.25 76.75 47.45 76.75 40 76.75 32.6 73.85 25.8Z" />
            </g>
            <animate attributeName="display" fill="freeze" repeatCount="1" dur="0.792s"
                keyTimes="0;.526;.579;1" values="none;inline;none;none" />
        </g>
        <g display="none">
            <g id="Layer9_0_FILL">
                <path fill="#17A2B8" stroke="none"
                    d="M68.45 11.7Q62.9 6.2 55.75 3.15 48.3 0 40.15 0 32 0 24.55 3.15 17.4 6.2 11.85 11.7 6.35 17.25 3.3 24.4 .15 31.85 .15 40 .15 48.15 3.3 55.6 6.35 62.8 11.85 68.3 17.4 73.85 24.55 76.9 32 80 40.15 80 48.3 80 55.75 76.9 62.9 73.85 68.45 68.3 74 62.8 77 55.6 80.15 48.15 80.15 40 80.15 31.85 77 24.4 74 17.25 68.45 11.7M66 14.15Q71.1 19.25 73.85 25.8 76.75 32.6 76.75 40 76.75 47.45 73.85 54.25 71.1 60.8 66 65.85 60.95 70.95 54.4 73.75 47.55 76.6 40.15 76.6 32.7 76.6 25.95 73.75 19.35 70.95 14.3 65.85 9.2 60.8 6.45 54.25 3.55 47.45 3.55 40 3.55 32.6 6.45 25.8 9.2 19.2 14.3 14.15 19.35 9.1 25.95 6.3 32.7 3.4 40.15 3.4 47.55 3.4 54.4 6.3 60.95 9.1 66 14.15Z" />
                <path fill="#17A2B8" fill-opacity=".333" stroke="none"
                    d="M73.85 25.8Q71.1 19.25 66 14.15 60.95 9.1 54.4 6.3 47.55 3.4 40.15 3.4 32.7 3.4 25.95 6.3 19.35 9.1 14.3 14.15 9.2 19.2 6.45 25.8 3.55 32.6 3.55 40 3.55 47.45 6.45 54.25 9.2 60.8 14.3 65.85 19.35 70.95 25.95 73.75 32.7 76.6 40.15 76.6 47.55 76.6 54.4 73.75 60.95 70.95 66 65.85 71.1 60.8 73.85 54.25 76.75 47.45 76.75 40 76.75 32.6 73.85 25.8Z" />
            </g>
            <animate attributeName="display" fill="freeze" repeatCount="1" dur="0.792s"
                keyTimes="0;.474;.526;1" values="none;inline;none;none" />
        </g>
        <g display="none">
            <g id="Layer8_0_FILL">
                <path fill="#17A2B8" stroke="none"
                    d="M68.3 11.7Q62.75 6.15 55.6 3.15 48.15 0 40 0 31.85 0 24.4 3.15 17.25 6.15 11.7 11.7 6.15 17.25 3.15 24.4 0 31.85 0 40 0 48.15 3.15 55.6 6.15 62.75 11.7 68.3 17.25 73.85 24.4 76.85 31.85 80 40 80 48.15 80 55.6 76.85 62.75 73.85 68.3 68.3 73.85 62.75 76.85 55.6 80 48.15 80 40 80 31.85 76.85 24.4 73.85 17.25 68.3 11.7M65.85 14.15Q70.9 19.2 73.7 25.75 76.6 32.6 76.6 40 76.6 47.45 73.7 54.2 70.9 60.8 65.85 65.85 60.8 70.95 54.2 73.7 47.4 76.6 40 76.6 32.55 76.6 25.75 73.7 19.2 70.95 14.15 65.85 9.05 60.8 6.3 54.2 3.4 47.45 3.4 40 3.4 32.55 6.3 25.75 9.05 19.2 14.15 14.15 19.2 9.05 25.75 6.3 32.55 3.4 40 3.4 47.4 3.4 54.2 6.3 60.8 9.1 65.85 14.15Z" />
            </g>
            <animate attributeName="display" fill="freeze" repeatCount="1" dur="0.792s"
                keyTimes="0;.421;.474;1" values="none;inline;none;none" />
        </g>
        <g display="none">
            <g id="Layer7_0_FILL">
                <path fill="#17A2B8" stroke="none"
                    d="M73.7 25.75Q76.6 32.6 76.6 40 76.6 47.45 73.7 54.2 70.9 60.8 65.85 65.85 60.8 70.95 54.2 73.7 47.4 76.6 40 76.6 32.55 76.6 25.75 73.7 19.2 70.95 14.15 65.85 9.05 60.8 6.3 54.2 3.4 47.45 3.4 40 3.4 32.55 6.3 25.75 9.05 19.2 14.15 14.15 19.2 9.05 25.75 6.3 32.55 3.4 40 3.4L40 0Q31.85 0 24.4 3.15 17.25 6.15 11.7 11.7 6.15 17.25 3.15 24.4 0 31.85 0 40 0 48.15 3.15 55.6 6.15 62.75 11.7 68.3 17.25 73.85 24.4 76.85 31.85 80 40 80 48.15 80 55.6 76.85 62.75 73.85 68.3 68.3 73.85 62.75 76.85 55.6 80 48.15 80 40 80 31.85 76.85 24.4 73.85 17.25 68.3 11.7L65.85 14.15Q70.9 19.2 73.7 25.75Z" />
            </g>
            <animate attributeName="display" fill="freeze" repeatCount="1" dur="0.792s"
                keyTimes="0;.368;.421;1" values="none;inline;none;none" />
        </g>
        <g display="none">
            <g id="Layer6_0_FILL">
                <path fill="#17A2B8" stroke="none"
                    d="M80 40L76.6 40Q76.6 47.45 73.7 54.2 70.9 60.8 65.85 65.85 60.8 70.95 54.2 73.7 47.4 76.6 40 76.6 32.55 76.6 25.75 73.7 19.2 70.95 14.15 65.85 9.05 60.8 6.3 54.2 3.4 47.45 3.4 40 3.4 32.55 6.3 25.75 9.05 19.2 14.15 14.15 19.2 9.05 25.75 6.3 32.55 3.4 40 3.4L40 0Q31.85 0 24.4 3.15 17.25 6.15 11.7 11.7 6.15 17.25 3.15 24.4 0 31.85 0 40 0 48.15 3.15 55.6 6.15 62.75 11.7 68.3 17.25 73.85 24.4 76.85 31.85 80 40 80 48.15 80 55.6 76.85 62.75 73.85 68.3 68.3 73.85 62.75 76.85 55.6 80 48.15 80 40Z" />
            </g>
            <animate attributeName="display" fill="freeze" repeatCount="1" dur="0.792s"
                keyTimes="0;.316;.368;1" values="none;inline;none;none" />
        </g>
        <g display="none">
            <g id="Layer5_0_FILL">
                <path fill="#17A2B8" stroke="none"
                    d="M25.75 6.3Q32.55 3.4 40 3.4L40 0Q31.85 0 24.4 3.15 17.25 6.15 11.7 11.7 6.15 17.25 3.15 24.4 0 31.85 0 40 0 48.15 3.15 55.6 6.15 62.75 11.7 68.3 17.25 73.85 24.4 76.85 31.85 80 40 80 48.15 80 55.6 76.85 62.75 73.85 68.3 68.3L65.85 65.85Q60.8 70.95 54.2 73.7 47.4 76.6 40 76.6 32.55 76.6 25.75 73.7 19.2 70.95 14.15 65.85 9.05 60.8 6.3 54.2 3.4 47.45 3.4 40 3.4 32.55 6.3 25.75 9.05 19.2 14.15 14.15 19.2 9.05 25.75 6.3Z" />
            </g>
            <animate attributeName="display" fill="freeze" repeatCount="1" dur="0.792s"
                keyTimes="0;.263;.316;1" values="none;inline;none;none" />
        </g>
        <g display="none">
            <g id="Layer4_0_FILL">
                <path fill="#17A2B8" stroke="none"
                    d="M25.75 6.3Q32.55 3.4 40 3.4L40 0Q31.85 0 24.4 3.15 17.25 6.15 11.7 11.7 6.15 17.25 3.15 24.4 0 31.85 0 40 0 48.15 3.15 55.6 6.15 62.75 11.7 68.3 17.25 73.85 24.4 76.85 31.85 80 40 80L40 76.6Q32.55 76.6 25.75 73.7 19.2 70.95 14.15 65.85 9.05 60.8 6.3 54.2 3.4 47.45 3.4 40 3.4 32.55 6.3 25.75 9.05 19.2 14.15 14.15 19.2 9.05 25.75 6.3Z" />
            </g>
            <animate attributeName="display" fill="freeze" repeatCount="1" dur="0.792s"
                keyTimes="0;.211;.263;1" values="none;inline;none;none" />
        </g>
        <g display="none">
            <g id="Layer3_0_FILL">
                <path fill="#17A2B8" stroke="none"
                    d="M25.75 6.3Q32.55 3.4 40 3.4L40 0Q31.85 0 24.4 3.15 17.25 6.15 11.7 11.7 6.15 17.25 3.15 24.4 0 31.85 0 40 0 48.15 3.15 55.6 6.15 62.75 11.7 68.3L14.15 65.85Q9.05 60.8 6.3 54.2 3.4 47.45 3.4 40 3.4 32.55 6.3 25.75 9.05 19.2 14.15 14.15 19.2 9.05 25.75 6.3Z" />
            </g>
            <animate attributeName="display" fill="freeze" repeatCount="1" dur="0.792s"
                keyTimes="0;.158;.211;1" values="none;inline;none;none" />
        </g>
        <g display="none">
            <g id="Layer2_0_FILL">
                <path fill="#17A2B8" stroke="none"
                    d="M25.75 6.3Q32.55 3.4 40 3.4L40 0Q31.85 0 24.4 3.15 17.25 6.15 11.7 11.7 6.15 17.25 3.15 24.4 0 31.85 0 40L3.4 40Q3.4 32.55 6.3 25.75 9.05 19.2 14.15 14.15 19.2 9.05 25.75 6.3Z" />
            </g>
            <animate attributeName="display" fill="freeze" repeatCount="1" dur="0.792s"
                keyTimes="0;.105;.158;1" values="none;inline;none;none" />
        </g>
        <g display="none">
            <g id="Layer1_0_FILL">
                <path fill="#17A2B8" stroke="none"
                    d="M40 0Q31.85 0 24.4 3.15 17.25 6.15 11.7 11.7L14.15 14.15Q19.2 9.05 25.75 6.3 32.55 3.4 40 3.4L40 0Z" />
            </g>
            <animate attributeName="display" fill="freeze" repeatCount="1" dur="0.792s"
                keyTimes="0;.053;.105;1" values="none;inline;none;none" />
        </g>
        <g>
            <animate attributeName="display" fill="freeze" repeatCount="1" dur="0.792s"
                keyTimes="0;.053;1" values="inline;none;none" />
        </g>
    </g>
</svg>