<svg class="na-svgbox" id="successanim" image-rendering="auto" baseProfile="basic" version="1.1"
    x="0px" y="0px" width="80" height="80" xmlns="http://www.w3.org/2000/svg"
    xmlns:xlink="http://www.w3.org/1999/xlink">
    <defs>
        <g id="Layer22_0_FILL">
            <path fill="#28A745" stroke="none"
                d="M68.3 11.7Q62.75 6.15 55.6 3.15 48.15 0 40 0 31.85 0 24.4 3.15 17.25 6.15 11.7 11.7 6.15 17.25 3.15 24.4 0 31.85 0 40 0 48.15 3.15 55.6 6.15 62.75 11.7 68.3 17.25 73.85 24.4 76.85 31.85 80 40 80 48.15 80 55.6 76.85 62.75 73.85 68.3 68.3 73.85 62.75 76.85 55.6 80 48.15 80 40 80 31.85 76.85 24.4 73.85 17.25 68.3 11.7M52.3 29.55Q52.8 29.05 53.5 29.05 54.15 29.05 54.7 29.55 55.2 30.05 55.2 30.75 55.2 31.4 54.7 31.95L36.15 50.5Q35.6 51 34.95 51 34.25 51 33.75 50.5L25.3 42.05Q24.8 41.55 24.8 40.85 24.8 40.2 25.3 39.65 25.85 39.15 26.5 39.15 27.2 39.15 27.7 39.65L34.95 46.9 52.3 29.55Z" />
        </g>
    </defs>
    <g id="Cena-1r1" overflow="visible">
        <g display="none">
            <g id="Layer21_0_FILL">
                <path fill="#28A745" stroke="none"
                    d="M68.45 11.7Q62.9 6.2 55.75 3.15 48.3 0 40.15 0 32 0 24.55 3.15 17.4 6.2 11.85 11.7 6.35 17.25 3.3 24.4 .15 31.85 .15 40 .15 48.15 3.3 55.6 6.35 62.8 11.85 68.3 17.4 73.85 24.55 76.9 32 80 40.15 80 48.3 80 55.75 76.9 62.9 73.85 68.45 68.3 74 62.8 77 55.6 80.15 48.15 80.15 40 80.15 31.85 77 24.4 74 17.25 68.45 11.7M52.3 29.55Q52.8 29.05 53.5 29.05 54.15 29.05 54.7 29.55 55.2 30.05 55.2 30.75 55.2 31.4 54.7 31.95L36.15 50.5Q35.6 51 34.95 51 34.25 51 33.75 50.5L23.95 40.65Q23.4 40.15 23.4 39.45 23.4 38.8 23.95 38.3 24.45 37.75 25.1 37.75 25.8 37.75 26.3 38.3L34.95 46.9 52.3 29.55Z" />
            </g>
            <animate attributeName="display" fill="freeze" repeatCount="1" dur="0.917s"
                keyTimes="0;.955;1" values="none;inline;inline" />
        </g>
        <g display="none">
            <g id="Layer20_0_FILL">
                <path fill="#28A745" stroke="none"
                    d="M68.3 11.7Q62.75 6.15 55.6 3.15 48.15 0 40 0 31.85 0 24.4 3.15 17.25 6.15 11.7 11.7 6.15 17.25 3.15 24.4 0 31.85 0 40 0 48.15 3.15 55.6 6.15 62.75 11.7 68.3 17.25 73.85 24.4 76.85 31.85 80 40 80 48.15 80 55.6 76.85 62.75 73.85 68.3 68.3 73.85 62.75 76.85 55.6 80 48.15 80 40 80 31.85 76.85 24.4 73.85 17.25 68.3 11.7M52.3 29.55Q52.8 29.05 53.5 29.05 54.15 29.05 54.7 29.55 55.2 30.05 55.2 30.75 55.2 31.4 54.7 31.95L36.15 50.5Q35.6 51 34.95 51 34.25 51 33.75 50.5L23.95 40.65Q23.4 40.15 23.4 39.45 23.4 38.8 23.95 38.3 24.45 37.75 25.1 37.75 25.8 37.75 26.3 38.3L34.95 46.9 52.3 29.55Z" />
            </g>
            <animate attributeName="display" fill="freeze" repeatCount="1" dur="0.917s"
                keyTimes="0;.909;.955;1" values="none;inline;none;none" />
        </g>
        <g display="none">
            <g id="Layer19_0_FILL">
                <path fill="#28A745" stroke="none"
                    d="M68.3 11.7Q62.75 6.15 55.6 3.15 48.15 0 40 0 31.85 0 24.4 3.15 17.25 6.15 11.7 11.7 6.15 17.25 3.15 24.4 0 31.85 0 40 0 48.15 3.15 55.6 6.15 62.75 11.7 68.3 17.25 73.85 24.4 76.85 31.85 80 40 80 48.15 80 55.6 76.85 62.75 73.85 68.3 68.3 73.85 62.75 76.85 55.6 80 48.15 80 40 80 31.85 76.85 24.4 73.85 17.25 68.3 11.7M52.3 29.55Q52.8 29.05 53.5 29.05 54.15 29.05 54.7 29.55 55.2 30.05 55.2 30.75 55.2 31.4 54.7 31.95L36.15 50.5Q35.6 51 34.95 51 34.25 51 33.75 50.5L25.3 42.05Q24.8 41.55 24.8 40.85 24.8 40.2 25.3 39.65 25.85 39.15 26.5 39.15 27.2 39.15 27.7 39.65L34.95 46.9 52.3 29.55Z" />
            </g>
            <animate attributeName="display" fill="freeze" repeatCount="1" dur="0.917s"
                keyTimes="0;.864;.909;1" values="none;inline;none;none" />
        </g>
        <g display="none">
            <g id="Layer18_0_FILL">
                <path fill="#28A745" stroke="none"
                    d="M76.85 24.4Q73.85 17.25 68.3 11.7 62.75 6.15 55.6 3.15 48.15 0 40 0 31.85 0 24.4 3.15 17.25 6.15 11.7 11.7 6.15 17.25 3.15 24.4 0 31.85 0 40 0 48.15 3.15 55.6 6.15 62.75 11.7 68.3 17.25 73.85 24.4 76.85 31.85 80 40 80 48.15 80 55.6 76.85 62.75 73.85 68.3 68.3 73.85 62.75 76.85 55.6 80 48.15 80 40 80 31.85 76.85 24.4M56.9 29.7Q56.85 29.75 56.85 29.8 53.05 33.6 49.25 37.4L36.15 50.5Q35.6 51 34.95 51 34.25 51 33.75 50.5L25.3 42.05Q24.8 41.55 24.8 40.85 24.8 40.2 25.3 39.65 25.85 39.15 26.5 39.15 27.2 39.15 27.7 39.65L34.95 46.9 52.5 29.35Q52.5 29.3 52.55 29.3 53.3 28.55 54.05 27.8L54.7 27.15Q54.75 27.1 54.8 27.05L56.45 25.4Q56.95 24.9 57.65 24.9 58.3 24.9 58.85 25.4 59.35 25.9 59.35 26.6 59.35 27.25 58.85 27.75L56.9 29.7Z" />
            </g>
            <animate attributeName="display" fill="freeze" repeatCount="1" dur="0.917s"
                keyTimes="0;.818;.864;1" values="none;inline;none;none" />
        </g>
        <g display="none">
            <g id="Layer17_0_FILL">
                <path fill="#28A745" stroke="none"
                    d="M68.3 11.7Q62.75 6.15 55.6 3.15 48.15 0 40 0 31.85 0 24.4 3.15 17.25 6.15 11.7 11.7 6.15 17.25 3.15 24.4 0 31.85 0 40 0 48.15 3.15 55.6 6.15 62.75 11.7 68.3 17.25 73.85 24.4 76.85 31.85 80 40 80 48.15 80 55.6 76.85 62.75 73.85 68.3 68.3 73.85 62.75 76.85 55.6 80 48.15 80 40 80 31.85 76.85 24.4 73.85 17.25 68.3 11.7M54.7 27.15Q55.2 26.65 55.9 26.65 56.55 26.65 57.1 27.15 57.6 27.65 57.6 28.35 57.6 29 57.1 29.55L36.15 50.5Q35.6 51 34.95 51 34.25 51 33.75 50.5L25.3 42.05Q24.8 41.55 24.8 40.85 24.8 40.2 25.3 39.65 25.85 39.15 26.5 39.15 27.2 39.15 27.7 39.65L34.95 46.9 54.7 27.15Z" />
            </g>
            <animate attributeName="display" fill="freeze" repeatCount="1" dur="0.917s"
                keyTimes="0;.773;.818;1" values="none;inline;none;none" />
        </g>
        <g display="none">
            <g id="Layer16_0_FILL">
                <path fill="#28A745" stroke="none"
                    d="M68.3 11.7Q62.75 6.15 55.6 3.15 48.15 0 40 0 31.85 0 24.4 3.15 17.25 6.15 11.7 11.7 6.15 17.25 3.15 24.4 0 31.85 0 40 0 48.15 3.15 55.6 6.15 62.75 11.7 68.3 17.25 73.85 24.4 76.85 31.85 80 40 80 48.15 80 55.6 76.85 62.75 73.85 68.3 68.3 73.85 62.75 76.85 55.6 80 48.15 80 40 80 31.85 76.85 24.4 73.85 17.25 68.3 11.7M49.2 32.65Q49.7 32.15 50.35 32.15 51.05 32.15 51.55 32.65 52.05 33.2 52.05 33.85 52.05 34.55 51.55 35.05L36.15 50.5Q35.6 51 34.95 51 34.25 51 33.75 50.5L22.45 39.2Q21.95 38.7 21.95 38 21.95 37.35 22.45 36.8 23 36.3 23.65 36.3 24.35 36.3 24.85 36.8L34.95 46.9 49.2 32.65Z" />
            </g>
            <animate attributeName="display" fill="freeze" repeatCount="1" dur="0.917s"
                keyTimes="0;.727;.773;1" values="none;inline;none;none" />
        </g>
        <g display="none">
            <g id="Layer15_0_FILL">
                <path fill="#28A745" stroke="none"
                    d="M80 40Q80 31.85 76.85 24.4 73.85 17.25 68.3 11.7 62.75 6.15 55.6 3.15 48.15 0 40 0 31.85 0 24.4 3.15 17.25 6.15 11.7 11.7 6.15 17.25 3.15 24.4 0 31.85 0 40 0 48.15 3.15 55.6 6.15 62.75 11.7 68.3 17.25 73.85 24.4 76.85 31.85 80 40 80 48.15 80 55.6 76.85 62.75 73.85 68.3 68.3 73.85 62.75 76.85 55.6 80 48.15 80 40M49.25 36.65Q49.25 37.35 48.75 37.85L40.05 46.6Q39.25 47.4 38.4 48.2 38.2 48.45 37.95 48.7L36.15 50.5Q35.6 51 34.95 51 34.25 51 33.75 50.5L20.1 36.8Q19.55 36.3 19.55 35.65 19.55 34.95 20.1 34.45 20.6 33.95 21.3 33.95 21.95 33.95 22.45 34.45L34.95 46.9 46.4 35.45Q46.9 34.95 47.55 34.95 48.25 34.95 48.75 35.45 49.25 36 49.25 36.65Z" />
            </g>
            <animate attributeName="display" fill="freeze" repeatCount="1" dur="0.917s"
                keyTimes="0;.682;.727;1" values="none;inline;none;none" />
        </g>
        <g display="none">
            <g id="Layer14_0_FILL">
                <path fill="#28A745" stroke="none"
                    d="M68.3 11.7Q62.75 6.15 55.6 3.15 48.15 0 40 0 31.85 0 24.4 3.15 17.25 6.15 11.7 11.7 6.15 17.25 3.15 24.4 0 31.85 0 40 0 48.15 3.15 55.6 6.15 62.75 11.7 68.3 17.25 73.85 24.4 76.85 31.85 80 40 80 48.15 80 55.6 76.85 62.75 73.85 68.3 68.3 73.85 62.75 76.85 55.6 80 48.15 80 40 80 31.85 76.85 24.4 73.85 17.25 68.3 11.7M17.7 34.45Q17.2 33.95 17.2 33.25 17.2 32.55 17.7 32.05 18.2 31.55 18.9 31.55 19.55 31.55 20.1 32.05L34.95 46.9 35.05 46.8Q35.35 46.5 35.65 46.2 35.95 45.9 36.25 45.6L36.6 45.2Q37.15 44.75 37.8 44.75 38.45 44.75 39 45.25 39.5 45.75 39.5 46.45 39.5 47.1 39 47.65L38.8 47.85Q38.7 47.9 38.65 48L36.15 50.5Q36.1 50.55 36.05 50.6 35.55 51 34.95 51 34.25 51 33.75 50.5L17.7 34.45Z" />
            </g>
            <animate attributeName="display" fill="freeze" repeatCount="1" dur="0.917s"
                keyTimes="0;.636;.682;1" values="none;inline;none;none" />
        </g>
        <g display="none">
            <g id="Layer13_0_FILL">
                <path fill="#28A745" stroke="none"
                    d="M68.3 11.7Q62.75 6.15 55.6 3.15 48.15 0 40 0 31.85 0 24.4 3.15 17.25 6.15 11.7 11.7 6.15 17.25 3.15 24.4 0 31.85 0 40 0 48.15 3.15 55.6 6.15 62.75 11.7 68.3 17.25 73.85 24.4 76.85 31.85 80 40 80 48.15 80 55.6 76.85 62.75 73.85 68.3 68.3 73.85 62.75 76.85 55.6 80 48.15 80 40 80 31.85 76.85 24.4 73.85 17.25 68.3 11.7M17.7 34.45Q17.2 33.95 17.2 33.25 17.2 32.55 17.7 32.05 18.2 31.55 18.9 31.55 19.55 31.55 20.1 32.05L34.85 46.8Q35.35 47.3 35.35 48 35.35 48.65 34.8 49.2 34.3 49.7 33.65 49.7 33 49.7 32.45 49.2L17.7 34.45Z" />
            </g>
            <animate attributeName="display" fill="freeze" repeatCount="1" dur="0.917s"
                keyTimes="0;.591;.636;1" values="none;inline;none;none" />
        </g>
        <g display="none">
            <g id="Layer12_0_FILL">
                <path fill="#28A745" stroke="none"
                    d="M68.3 11.7Q62.75 6.15 55.6 3.15 48.15 0 40 0 31.85 0 24.4 3.15 17.25 6.15 11.7 11.7 6.15 17.25 3.15 24.4 0 31.85 0 40 0 48.15 3.15 55.6 6.15 62.75 11.7 68.3 17.25 73.85 24.4 76.85 31.85 80 40 80 48.15 80 55.6 76.85 62.75 73.85 68.3 68.3 73.85 62.75 76.85 55.6 80 48.15 80 40 80 31.85 76.85 24.4 73.85 17.25 68.3 11.7M18.6 35.35L17.7 34.45Q17.2 33.95 17.2 33.25 17.2 32.55 17.7 32.05 18.2 31.55 18.9 31.55 19.55 31.55 20.1 32.05L21 33Q21.45 33.45 21.45 34.15 21.45 34.8 20.95 35.3 20.45 35.85 19.75 35.85 19.1 35.85 18.6 35.35Z" />
            </g>
            <animate attributeName="display" fill="freeze" repeatCount="1" dur="0.917s"
                keyTimes="0;.545;.591;1" values="none;inline;none;none" />
        </g>
        <g display="none">
            <g id="Layer11_0_FILL">
                <path fill="#28A745" stroke="none"
                    d="M68.45 11.7Q62.9 6.2 55.75 3.15 48.3 0 40.15 0 32 0 24.55 3.15 17.4 6.2 11.85 11.7 6.35 17.25 3.3 24.4 .15 31.85 .15 40 .15 48.15 3.3 55.6 6.35 62.8 11.85 68.3 17.4 73.85 24.55 76.9 32 80 40.15 80 48.3 80 55.75 76.9 62.9 73.85 68.45 68.3 74 62.8 77 55.6 80.15 48.15 80.15 40 80.15 31.85 77 24.4 74 17.25 68.45 11.7Z" />
            </g>
            <animate attributeName="display" fill="freeze" repeatCount="1" dur="0.917s"
                keyTimes="0;.5;.545;1" values="none;inline;none;none" />
        </g>
        <g display="none">
            <g id="Layer10_0_FILL">
                <path fill="#28A745" stroke="none"
                    d="M68.45 11.7Q62.9 6.2 55.75 3.15 48.3 0 40.15 0 32 0 24.55 3.15 17.4 6.2 11.85 11.7 6.35 17.25 3.3 24.4 .15 31.85 .15 40 .15 48.15 3.3 55.6 6.35 62.8 11.85 68.3 17.4 73.85 24.55 76.9 32 80 40.15 80 48.3 80 55.75 76.9 62.9 73.85 68.45 68.3 74 62.8 77 55.6 80.15 48.15 80.15 40 80.15 31.85 77 24.4 74 17.25 68.45 11.7M66 14.15Q71.1 19.25 73.85 25.8 76.75 32.6 76.75 40 76.75 47.45 73.85 54.25 71.1 60.8 66 65.85 60.95 70.95 54.4 73.75 47.55 76.6 40.15 76.6 32.7 76.6 25.95 73.75 19.35 70.95 14.3 65.85 9.2 60.8 6.45 54.25 3.55 47.45 3.55 40 3.55 32.6 6.45 25.8 9.2 19.2 14.3 14.15 19.35 9.1 25.95 6.3 32.7 3.4 40.15 3.4 47.55 3.4 54.4 6.3 60.95 9.1 66 14.15Z" />
                <path fill="#28A745" fill-opacity=".666" stroke="none"
                    d="M73.85 25.8Q71.1 19.25 66 14.15 60.95 9.1 54.4 6.3 47.55 3.4 40.15 3.4 32.7 3.4 25.95 6.3 19.35 9.1 14.3 14.15 9.2 19.2 6.45 25.8 3.55 32.6 3.55 40 3.55 47.45 6.45 54.25 9.2 60.8 14.3 65.85 19.35 70.95 25.95 73.75 32.7 76.6 40.15 76.6 47.55 76.6 54.4 73.75 60.95 70.95 66 65.85 71.1 60.8 73.85 54.25 76.75 47.45 76.75 40 76.75 32.6 73.85 25.8Z" />
            </g>
            <animate attributeName="display" fill="freeze" repeatCount="1" dur="0.917s"
                keyTimes="0;.455;.5;1" values="none;inline;none;none" />
        </g>
        <g display="none">
            <g id="Layer9_0_FILL">
                <path fill="#28A745" stroke="none"
                    d="M68.45 11.7Q62.9 6.2 55.75 3.15 48.3 0 40.15 0 32 0 24.55 3.15 17.4 6.2 11.85 11.7 6.35 17.25 3.3 24.4 .15 31.85 .15 40 .15 48.15 3.3 55.6 6.35 62.8 11.85 68.3 17.4 73.85 24.55 76.9 32 80 40.15 80 48.3 80 55.75 76.9 62.9 73.85 68.45 68.3 74 62.8 77 55.6 80.15 48.15 80.15 40 80.15 31.85 77 24.4 74 17.25 68.45 11.7M66 14.15Q71.1 19.25 73.85 25.8 76.75 32.6 76.75 40 76.75 47.45 73.85 54.25 71.1 60.8 66 65.85 60.95 70.95 54.4 73.75 47.55 76.6 40.15 76.6 32.7 76.6 25.95 73.75 19.35 70.95 14.3 65.85 9.2 60.8 6.45 54.25 3.55 47.45 3.55 40 3.55 32.6 6.45 25.8 9.2 19.2 14.3 14.15 19.35 9.1 25.95 6.3 32.7 3.4 40.15 3.4 47.55 3.4 54.4 6.3 60.95 9.1 66 14.15Z" />
                <path fill="#28A745" fill-opacity=".333" stroke="none"
                    d="M73.85 25.8Q71.1 19.25 66 14.15 60.95 9.1 54.4 6.3 47.55 3.4 40.15 3.4 32.7 3.4 25.95 6.3 19.35 9.1 14.3 14.15 9.2 19.2 6.45 25.8 3.55 32.6 3.55 40 3.55 47.45 6.45 54.25 9.2 60.8 14.3 65.85 19.35 70.95 25.95 73.75 32.7 76.6 40.15 76.6 47.55 76.6 54.4 73.75 60.95 70.95 66 65.85 71.1 60.8 73.85 54.25 76.75 47.45 76.75 40 76.75 32.6 73.85 25.8Z" />
            </g>
            <animate attributeName="display" fill="freeze" repeatCount="1" dur="0.917s"
                keyTimes="0;.409;.455;1" values="none;inline;none;none" />
        </g>
        <g display="none">
            <g id="Layer8_0_FILL">
                <path fill="#28A745" stroke="none"
                    d="M68.3 11.7Q62.75 6.15 55.6 3.15 48.15 0 40 0 31.85 0 24.4 3.15 17.25 6.15 11.7 11.7 6.15 17.25 3.15 24.4 0 31.85 0 40 0 48.15 3.15 55.6 6.15 62.75 11.7 68.3 17.25 73.85 24.4 76.85 31.85 80 40 80 48.15 80 55.6 76.85 62.75 73.85 68.3 68.3 73.85 62.75 76.85 55.6 80 48.15 80 40 80 31.85 76.85 24.4 73.85 17.25 68.3 11.7M65.85 14.15Q70.9 19.2 73.7 25.75 76.6 32.6 76.6 40 76.6 47.45 73.7 54.2 70.9 60.8 65.85 65.85 60.8 70.95 54.2 73.7 47.4 76.6 40 76.6 32.55 76.6 25.75 73.7 19.2 70.95 14.15 65.85 9.05 60.8 6.3 54.2 3.4 47.45 3.4 40 3.4 32.55 6.3 25.75 9.05 19.2 14.15 14.15 19.2 9.05 25.75 6.3 32.55 3.4 40 3.4 47.4 3.4 54.2 6.3 60.8 9.1 65.85 14.15Z" />
            </g>
            <animate attributeName="display" fill="freeze" repeatCount="1" dur="0.917s"
                keyTimes="0;.364;.409;1" values="none;inline;none;none" />
        </g>
        <g display="none">
            <g id="Layer7_0_FILL">
                <path fill="#28A745" stroke="none"
                    d="M73.7 25.75Q76.6 32.6 76.6 40 76.6 47.45 73.7 54.2 70.9 60.8 65.85 65.85 60.8 70.95 54.2 73.7 47.4 76.6 40 76.6 32.55 76.6 25.75 73.7 19.2 70.95 14.15 65.85 9.05 60.8 6.3 54.2 3.4 47.45 3.4 40 3.4 32.55 6.3 25.75 9.05 19.2 14.15 14.15 19.2 9.05 25.75 6.3 32.55 3.4 40 3.4L40 0Q31.85 0 24.4 3.15 17.25 6.15 11.7 11.7 6.15 17.25 3.15 24.4 0 31.85 0 40 0 48.15 3.15 55.6 6.15 62.75 11.7 68.3 17.25 73.85 24.4 76.85 31.85 80 40 80 48.15 80 55.6 76.85 62.75 73.85 68.3 68.3 73.85 62.75 76.85 55.6 80 48.15 80 40 80 31.85 76.85 24.4 73.85 17.25 68.3 11.7L65.85 14.15Q70.9 19.2 73.7 25.75Z" />
            </g>
            <animate attributeName="display" fill="freeze" repeatCount="1" dur="0.917s"
                keyTimes="0;.318;.364;1" values="none;inline;none;none" />
        </g>
        <g display="none">
            <g id="Layer6_0_FILL">
                <path fill="#28A745" stroke="none"
                    d="M80 40L76.6 40Q76.6 47.45 73.7 54.2 70.9 60.8 65.85 65.85 60.8 70.95 54.2 73.7 47.4 76.6 40 76.6 32.55 76.6 25.75 73.7 19.2 70.95 14.15 65.85 9.05 60.8 6.3 54.2 3.4 47.45 3.4 40 3.4 32.55 6.3 25.75 9.05 19.2 14.15 14.15 19.2 9.05 25.75 6.3 32.55 3.4 40 3.4L40 0Q31.85 0 24.4 3.15 17.25 6.15 11.7 11.7 6.15 17.25 3.15 24.4 0 31.85 0 40 0 48.15 3.15 55.6 6.15 62.75 11.7 68.3 17.25 73.85 24.4 76.85 31.85 80 40 80 48.15 80 55.6 76.85 62.75 73.85 68.3 68.3 73.85 62.75 76.85 55.6 80 48.15 80 40Z" />
            </g>
            <animate attributeName="display" fill="freeze" repeatCount="1" dur="0.917s"
                keyTimes="0;.273;.318;1" values="none;inline;none;none" />
        </g>
        <g display="none">
            <g id="Layer5_0_FILL">
                <path fill="#28A745" stroke="none"
                    d="M25.75 6.3Q32.55 3.4 40 3.4L40 0Q31.85 0 24.4 3.15 17.25 6.15 11.7 11.7 6.15 17.25 3.15 24.4 0 31.85 0 40 0 48.15 3.15 55.6 6.15 62.75 11.7 68.3 17.25 73.85 24.4 76.85 31.85 80 40 80 48.15 80 55.6 76.85 62.75 73.85 68.3 68.3L65.85 65.85Q60.8 70.95 54.2 73.7 47.4 76.6 40 76.6 32.55 76.6 25.75 73.7 19.2 70.95 14.15 65.85 9.05 60.8 6.3 54.2 3.4 47.45 3.4 40 3.4 32.55 6.3 25.75 9.05 19.2 14.15 14.15 19.2 9.05 25.75 6.3Z" />
            </g>
            <animate attributeName="display" fill="freeze" repeatCount="1" dur="0.917s"
                keyTimes="0;.227;.273;1" values="none;inline;none;none" />
        </g>
        <g display="none">
            <g id="Layer4_0_FILL">
                <path fill="#28A745" stroke="none"
                    d="M25.75 6.3Q32.55 3.4 40 3.4L40 0Q31.85 0 24.4 3.15 17.25 6.15 11.7 11.7 6.15 17.25 3.15 24.4 0 31.85 0 40 0 48.15 3.15 55.6 6.15 62.75 11.7 68.3 17.25 73.85 24.4 76.85 31.85 80 40 80L40 76.6Q32.55 76.6 25.75 73.7 19.2 70.95 14.15 65.85 9.05 60.8 6.3 54.2 3.4 47.45 3.4 40 3.4 32.55 6.3 25.75 9.05 19.2 14.15 14.15 19.2 9.05 25.75 6.3Z" />
            </g>
            <animate attributeName="display" fill="freeze" repeatCount="1" dur="0.917s"
                keyTimes="0;.182;.227;1" values="none;inline;none;none" />
        </g>
        <g display="none">
            <g id="Layer3_0_FILL">
                <path fill="#28A745" stroke="none"
                    d="M25.75 6.3Q32.55 3.4 40 3.4L40 0Q31.85 0 24.4 3.15 17.25 6.15 11.7 11.7 6.15 17.25 3.15 24.4 0 31.85 0 40 0 48.15 3.15 55.6 6.15 62.75 11.7 68.3L14.15 65.85Q9.05 60.8 6.3 54.2 3.4 47.45 3.4 40 3.4 32.55 6.3 25.75 9.05 19.2 14.15 14.15 19.2 9.05 25.75 6.3Z" />
            </g>
            <animate attributeName="display" fill="freeze" repeatCount="1" dur="0.917s"
                keyTimes="0;.136;.182;1" values="none;inline;none;none" />
        </g>
        <g display="none">
            <g id="Layer2_0_FILL">
                <path fill="#28A745" stroke="none"
                    d="M25.75 6.3Q32.55 3.4 40 3.4L40 0Q31.85 0 24.4 3.15 17.25 6.15 11.7 11.7 6.15 17.25 3.15 24.4 0 31.85 0 40L3.4 40Q3.4 32.55 6.3 25.75 9.05 19.2 14.15 14.15 19.2 9.05 25.75 6.3Z" />
            </g>
            <animate attributeName="display" fill="freeze" repeatCount="1" dur="0.917s"
                keyTimes="0;.091;.136;1" values="none;inline;none;none" />
        </g>
        <g display="none">
            <g id="Layer1_0_FILL">
                <path fill="#28A745" stroke="none"
                    d="M40 0Q31.85 0 24.4 3.15 17.25 6.15 11.7 11.7L14.15 14.15Q19.2 9.05 25.75 6.3 32.55 3.4 40 3.4L40 0Z" />
            </g>
            <animate attributeName="display" fill="freeze" repeatCount="1" dur="0.917s"
                keyTimes="0;.045;.091;1" values="none;inline;none;none" />
        </g>
        <g>
            <animate attributeName="display" fill="freeze" repeatCount="1" dur="0.917s"
                keyTimes="0;.045;1" values="inline;none;none" />
        </g>
    </g>
</svg>