<svg class="na-svgbox" id="alertaanim" image-rendering="auto" baseProfile="basic" version="1.1"
    x="0px" y="0px" width="80" height="80" xmlns="http://www.w3.org/2000/svg"
    xmlns:xlink="http://www.w3.org/1999/xlink">
    <defs>
        <g id="Layer19_0_FILL">
            <path fill="#FFC107" stroke="none"
                d="M68.45 11.7Q62.9 6.15 55.75 3.1 48.3 0 40.15 0 32 0 24.55 3.1 17.4 6.15 11.85 11.7 6.3 17.2 3.3 24.4 .15 31.85 .15 40 .15 48.15 3.3 55.6 6.3 62.75 11.85 68.3 17.4 73.8 24.55 76.85 32 80 40.15 80 48.3 80 55.75 76.85 62.9 73.8 68.45 68.3 73.95 62.75 77 55.6 80.15 48.15 80.15 40 80.15 31.85 77 24.4 73.95 17.2 68.45 11.7M41.3 22.3Q41.8 22.85 41.8 23.5L41.8 42.65Q41.8 43.35 41.3 43.85 40.8 44.35 40.1 44.35 39.4 44.35 38.9 43.85 38.4 43.4 38.4 42.65L38.4 23.5Q38.4 22.85 38.9 22.3 39.4 21.8 40.1 21.8 40.8 21.8 41.3 22.3M40.1 58.15Q38.5 58.15 37.4 57.05 36.25 55.95 36.25 54.35 36.25 52.75 37.4 51.6 38.5 50.5 40.1 50.5 41.7 50.5 42.8 51.6 43.9 52.75 43.9 54.35 43.9 55.9 42.8 57.05 41.7 58.15 40.1 58.15Z" />
        </g>
    </defs>
    <g id="Cena-1r1" overflow="visible">
        <g display="none">
            <g id="Layer18_0_FILL">
                <path fill="#FFC107" stroke="none"
                    d="M68.45 11.7Q62.9 6.15 55.75 3.1 48.3 0 40.15 0 32 0 24.55 3.1 17.4 6.15 11.85 11.7 6.3 17.2 3.3 24.4 .15 31.85 .15 40 .15 48.15 3.3 55.6 6.3 62.75 11.85 68.3 17.4 73.8 24.55 76.85 32 80 40.15 80 48.3 80 55.75 76.85 62.9 73.8 68.45 68.3 73.95 62.75 77 55.6 80.15 48.15 80.15 40 80.15 31.85 77 24.4 73.95 17.2 68.45 11.7M41.3 22.3Q41.8 22.85 41.8 23.5L41.8 42.65Q41.8 43.35 41.3 43.85 40.8 44.35 40.1 44.35 39.4 44.35 38.9 43.85 38.4 43.4 38.4 42.65L38.4 23.5Q38.4 22.85 38.9 22.3 39.4 21.8 40.1 21.8 40.8 21.8 41.3 22.3M40.1 59.1Q38.1 59.1 36.7 57.7 35.3 56.35 35.3 54.35 35.3 52.35 36.7 50.95 38.1 49.6 40.1 49.6 42.05 49.6 43.45 50.95 44.85 52.35 44.85 54.35 44.85 56.3 43.45 57.7 42.05 59.1 40.1 59.1Z" />
            </g>
            <animate attributeName="display" fill="freeze" repeatCount="1" dur="0.792s"
                keyTimes="0;.947;1" values="none;inline;inline" />
        </g>
        <g display="none">
            <g id="Layer17_0_FILL">
                <path fill="#FFC107" stroke="none"
                    d="M68.45 11.7Q62.9 6.15 55.75 3.1 48.3 0 40.15 0 32 0 24.55 3.1 17.4 6.15 11.85 11.7 6.3 17.2 3.3 24.4 .15 31.85 .15 40 .15 48.15 3.3 55.6 6.3 62.75 11.85 68.3 17.4 73.8 24.55 76.85 32 80 40.15 80 48.3 80 55.75 76.85 62.9 73.8 68.45 68.3 73.95 62.75 77 55.6 80.15 48.15 80.15 40 80.15 31.85 77 24.4 73.95 17.2 68.45 11.7M41.3 22.3Q41.8 22.85 41.8 23.5L41.8 42.65Q41.8 43.35 41.3 43.85 40.8 44.35 40.1 44.35 39.4 44.35 38.9 43.85 38.4 43.4 38.4 42.65L38.4 23.5Q38.4 22.85 38.9 22.3 39.4 21.8 40.1 21.8 40.8 21.8 41.3 22.3M40.1 58.15Q38.5 58.15 37.4 57.05 36.25 55.95 36.25 54.35 36.25 52.75 37.4 51.6 38.5 50.5 40.1 50.5 41.7 50.5 42.8 51.6 43.9 52.75 43.9 54.35 43.9 55.9 42.8 57.05 41.7 58.15 40.1 58.15Z" />
            </g>
            <animate attributeName="display" fill="freeze" repeatCount="1" dur="0.792s"
                keyTimes="0;.895;.947;1" values="none;inline;none;none" />
        </g>
        <g display="none">
            <g id="Layer16_0_FILL">
                <path fill="#FFC107" stroke="none"
                    d="M68.45 11.7Q62.9 6.15 55.75 3.1 48.3 0 40.15 0 32 0 24.55 3.1 17.4 6.15 11.85 11.7 6.3 17.2 3.3 24.4 .15 31.85 .15 40 .15 48.15 3.3 55.6 6.3 62.75 11.85 68.3 17.4 73.8 24.55 76.85 32 80 40.15 80 48.3 80 55.75 76.85 62.9 73.8 68.45 68.3 73.95 62.75 77 55.6 80.15 48.15 80.15 40 80.15 31.85 77 24.4 73.95 17.2 68.45 11.7M41.3 22.3Q41.8 22.85 41.8 23.5L41.8 42.65Q41.8 43.35 41.3 43.85 40.8 44.35 40.1 44.35 39.4 44.35 38.9 43.85 38.4 43.4 38.4 42.65L38.4 23.5Q38.4 22.85 38.9 22.3 39.4 21.8 40.1 21.8 40.8 21.8 41.3 22.3M40.1 55.15Q39.75 55.15 39.5 54.9 39.25 54.7 39.25 54.35 39.25 53.95 39.5 53.7 39.75 53.5 40.1 53.5 40.45 53.5 40.7 53.7 40.95 53.95 40.95 54.35 40.95 54.65 40.7 54.9 40.45 55.15 40.1 55.15Z" />
            </g>
            <animate attributeName="display" fill="freeze" repeatCount="1" dur="0.792s"
                keyTimes="0;.842;.895;1" values="none;inline;none;none" />
        </g>
        <g display="none">
            <g id="Layer15_0_FILL">
                <path fill="#FFC107" stroke="none"
                    d="M68.45 11.7Q62.9 6.15 55.75 3.1 48.3 0 40.15 0 32 0 24.55 3.1 17.4 6.15 11.85 11.7 6.3 17.2 3.3 24.4 .15 31.85 .15 40 .15 48.15 3.3 55.6 6.3 62.75 11.85 68.3 17.4 73.8 24.55 76.85 32 80 40.15 80 48.3 80 55.75 76.85 62.9 73.8 68.45 68.3 73.95 62.75 77 55.6 80.15 48.15 80.15 40 80.15 31.85 77 24.4 73.95 17.2 68.45 11.7M41.3 19.2Q41.8 19.7 41.8 20.4L41.8 42.65Q41.8 43.35 41.3 43.85 40.8 44.35 40.1 44.35 39.4 44.35 38.9 43.85 38.4 43.4 38.4 42.65L38.4 20.4Q38.4 19.7 38.9 19.2 39.4 18.7 40.1 18.7 40.8 18.7 41.3 19.2Z" />
            </g>
            <animate attributeName="display" fill="freeze" repeatCount="1" dur="0.792s"
                keyTimes="0;.789;.842;1" values="none;inline;none;none" />
        </g>
        <g display="none">
            <g id="Layer14_0_FILL">
                <path fill="#FFC107" stroke="none"
                    d="M68.45 11.7Q62.9 6.15 55.75 3.1 48.3 0 40.15 0 32 0 24.55 3.1 17.4 6.15 11.85 11.7 6.3 17.2 3.3 24.4 .15 31.85 .15 40 .15 48.15 3.3 55.6 6.3 62.75 11.85 68.3 17.4 73.8 24.55 76.85 32 80 40.15 80 48.3 80 55.75 76.85 62.9 73.8 68.45 68.3 73.95 62.75 77 55.6 80.15 48.15 80.15 40 80.15 31.85 77 24.4 73.95 17.2 68.45 11.7M41.3 19.2Q41.8 19.7 41.8 20.4L41.8 36.45Q41.8 37.15 41.3 37.65 40.8 38.15 40.1 38.15 39.4 38.15 38.9 37.65 38.4 37.15 38.4 36.45L38.4 20.4Q38.4 19.7 38.9 19.2 39.4 18.7 40.1 18.7 40.8 18.7 41.3 19.2Z" />
            </g>
            <animate attributeName="display" fill="freeze" repeatCount="1" dur="0.792s"
                keyTimes="0;.737;.789;1" values="none;inline;none;none" />
        </g>
        <g display="none">
            <g id="Layer13_0_FILL">
                <path fill="#FFC107" stroke="none"
                    d="M68.45 11.7Q62.9 6.15 55.75 3.1 48.3 0 40.15 0 32 0 24.55 3.1 17.4 6.15 11.85 11.7 6.3 17.2 3.3 24.4 .15 31.85 .15 40 .15 48.15 3.3 55.6 6.3 62.75 11.85 68.3 17.4 73.8 24.55 76.85 32 80 40.15 80 48.3 80 55.75 76.85 62.9 73.8 68.45 68.3 73.95 62.75 77 55.6 80.15 48.15 80.15 40 80.15 31.85 77 24.4 73.95 17.2 68.45 11.7M41.3 19.2Q41.8 19.7 41.8 20.4L41.8 31.8Q41.8 32.45 41.3 32.95 40.8 33.45 40.1 33.45 39.4 33.45 38.9 32.95 38.4 32.45 38.4 31.8L38.4 20.4Q38.4 19.7 38.9 19.2 39.4 18.7 40.1 18.7 40.8 18.7 41.3 19.2Z" />
            </g>
            <animate attributeName="display" fill="freeze" repeatCount="1" dur="0.792s"
                keyTimes="0;.684;.737;1" values="none;inline;none;none" />
        </g>
        <g display="none">
            <g id="Layer12_0_FILL">
                <path fill="#FFC107" stroke="none"
                    d="M68.3 11.7Q62.75 6.2 55.6 3.15 48.15 0 40 0 31.85 0 24.4 3.15 17.25 6.2 11.7 11.7 6.2 17.25 3.15 24.4 0 31.85 0 40 0 48.15 3.15 55.6 6.2 62.8 11.7 68.3 17.25 73.85 24.4 76.9 31.85 80 40 80 48.15 80 55.6 76.9 62.75 73.85 68.3 68.3 73.85 62.8 76.85 55.6 80 48.15 80 40 80 31.85 76.85 24.4 73.85 17.25 68.3 11.7M41.15 19.2Q41.65 19.75 41.65 20.4L41.65 20.6Q41.65 21.25 41.15 21.75 40.65 22.25 39.95 22.25 39.25 22.25 38.75 21.75 38.25 21.25 38.25 20.6L38.25 20.4Q38.25 19.75 38.75 19.2 39.25 18.7 39.95 18.7 40.65 18.7 41.15 19.2Z" />
            </g>
            <animate attributeName="display" fill="freeze" repeatCount="1" dur="0.792s"
                keyTimes="0;.632;.684;1" values="none;inline;none;none" />
        </g>
        <g display="none">
            <g id="Layer11_0_FILL">
                <path fill="#FFC107" stroke="none"
                    d="M68.3 11.7Q62.75 6.2 55.6 3.15 48.15 0 40 0 31.85 0 24.4 3.15 17.25 6.2 11.7 11.7 6.2 17.25 3.15 24.4 0 31.85 0 40 0 48.15 3.15 55.6 6.2 62.8 11.7 68.3 17.25 73.85 24.4 76.9 31.85 80 40 80 48.15 80 55.6 76.9 62.75 73.85 68.3 68.3 73.85 62.8 76.85 55.6 80 48.15 80 40 80 31.85 76.85 24.4 73.85 17.25 68.3 11.7Z" />
            </g>
            <animate attributeName="display" fill="freeze" repeatCount="1" dur="0.792s"
                keyTimes="0;.579;.632;1" values="none;inline;none;none" />
        </g>
        <g display="none">
            <g id="Layer10_0_FILL">
                <path fill="#FFC107" stroke="none"
                    d="M68.3 11.7Q62.75 6.2 55.6 3.15 48.15 0 40 0 31.85 0 24.4 3.15 17.25 6.2 11.7 11.7 6.2 17.25 3.15 24.4 0 31.85 0 40 0 48.15 3.15 55.6 6.2 62.8 11.7 68.3 17.25 73.85 24.4 76.9 31.85 80 40 80 48.15 80 55.6 76.9 62.75 73.85 68.3 68.3 73.85 62.8 76.85 55.6 80 48.15 80 40 80 31.85 76.85 24.4 73.85 17.25 68.3 11.7M65.85 14.15Q70.95 19.25 73.7 25.8 76.6 32.6 76.6 40 76.6 47.45 73.7 54.25 70.95 60.8 65.85 65.85 60.8 70.95 54.25 73.75 47.4 76.6 40 76.6 32.55 76.6 25.8 73.75 19.2 70.95 14.15 65.85 9.05 60.8 6.3 54.25 3.4 47.45 3.4 40 3.4 32.6 6.3 25.8 9.05 19.2 14.15 14.15 19.2 9.1 25.8 6.3 32.55 3.4 40 3.4 47.4 3.4 54.25 6.3 60.8 9.1 65.85 14.15Z" />
                <path fill="#FFC107" fill-opacity=".666" stroke="none"
                    d="M73.7 25.8Q70.95 19.25 65.85 14.15 60.8 9.1 54.25 6.3 47.4 3.4 40 3.4 32.55 3.4 25.8 6.3 19.2 9.1 14.15 14.15 9.05 19.2 6.3 25.8 3.4 32.6 3.4 40 3.4 47.45 6.3 54.25 9.05 60.8 14.15 65.85 19.2 70.95 25.8 73.75 32.55 76.6 40 76.6 47.4 76.6 54.25 73.75 60.8 70.95 65.85 65.85 70.95 60.8 73.7 54.25 76.6 47.45 76.6 40 76.6 32.6 73.7 25.8Z" />
            </g>
            <animate attributeName="display" fill="freeze" repeatCount="1" dur="0.792s"
                keyTimes="0;.526;.579;1" values="none;inline;none;none" />
        </g>
        <g display="none">
            <g id="Layer9_0_FILL">
                <path fill="#FFC107" stroke="none"
                    d="M68.3 11.7Q62.75 6.2 55.6 3.15 48.15 0 40 0 31.85 0 24.4 3.15 17.25 6.2 11.7 11.7 6.2 17.25 3.15 24.4 0 31.85 0 40 0 48.15 3.15 55.6 6.2 62.8 11.7 68.3 17.25 73.85 24.4 76.9 31.85 80 40 80 48.15 80 55.6 76.9 62.75 73.85 68.3 68.3 73.85 62.8 76.85 55.6 80 48.15 80 40 80 31.85 76.85 24.4 73.85 17.25 68.3 11.7M65.85 14.15Q70.95 19.25 73.7 25.8 76.6 32.6 76.6 40 76.6 47.45 73.7 54.25 70.95 60.8 65.85 65.85 60.8 70.95 54.25 73.75 47.4 76.6 40 76.6 32.55 76.6 25.8 73.75 19.2 70.95 14.15 65.85 9.05 60.8 6.3 54.25 3.4 47.45 3.4 40 3.4 32.6 6.3 25.8 9.05 19.2 14.15 14.15 19.2 9.1 25.8 6.3 32.55 3.4 40 3.4 47.4 3.4 54.25 6.3 60.8 9.1 65.85 14.15Z" />
                <path fill="#FFC107" fill-opacity=".333" stroke="none"
                    d="M73.7 25.8Q70.95 19.25 65.85 14.15 60.8 9.1 54.25 6.3 47.4 3.4 40 3.4 32.55 3.4 25.8 6.3 19.2 9.1 14.15 14.15 9.05 19.2 6.3 25.8 3.4 32.6 3.4 40 3.4 47.45 6.3 54.25 9.05 60.8 14.15 65.85 19.2 70.95 25.8 73.75 32.55 76.6 40 76.6 47.4 76.6 54.25 73.75 60.8 70.95 65.85 65.85 70.95 60.8 73.7 54.25 76.6 47.45 76.6 40 76.6 32.6 73.7 25.8Z" />
            </g>
            <animate attributeName="display" fill="freeze" repeatCount="1" dur="0.792s"
                keyTimes="0;.474;.526;1" values="none;inline;none;none" />
        </g>
        <g display="none">
            <g id="Layer8_0_FILL">
                <path fill="#FFC107" stroke="none"
                    d="M68.3 11.7Q62.75 6.15 55.6 3.15 48.15 0 40 0 31.85 0 24.4 3.15 17.25 6.15 11.7 11.7 6.15 17.25 3.15 24.4 0 31.85 0 40 0 48.15 3.15 55.6 6.15 62.75 11.7 68.3 17.25 73.85 24.4 76.85 31.85 80 40 80 48.15 80 55.6 76.85 62.75 73.85 68.3 68.3 73.85 62.75 76.85 55.6 80 48.15 80 40 80 31.85 76.85 24.4 73.85 17.25 68.3 11.7M65.85 14.15Q70.9 19.2 73.7 25.75 76.6 32.6 76.6 40 76.6 47.45 73.7 54.2 70.9 60.8 65.85 65.85 60.8 70.95 54.2 73.7 47.4 76.6 40 76.6 32.55 76.6 25.75 73.7 19.2 70.95 14.15 65.85 9.05 60.8 6.3 54.2 3.4 47.45 3.4 40 3.4 32.55 6.3 25.75 9.05 19.2 14.15 14.15 19.2 9.05 25.75 6.3 32.55 3.4 40 3.4 47.4 3.4 54.2 6.3 60.8 9.1 65.85 14.15Z" />
            </g>
            <animate attributeName="display" fill="freeze" repeatCount="1" dur="0.792s"
                keyTimes="0;.421;.474;1" values="none;inline;none;none" />
        </g>
        <g display="none">
            <g id="Layer7_0_FILL">
                <path fill="#FFC107" stroke="none"
                    d="M73.7 25.75Q76.6 32.6 76.6 40 76.6 47.45 73.7 54.2 70.9 60.8 65.85 65.85 60.8 70.95 54.2 73.7 47.4 76.6 40 76.6 32.55 76.6 25.75 73.7 19.2 70.95 14.15 65.85 9.05 60.8 6.3 54.2 3.4 47.45 3.4 40 3.4 32.55 6.3 25.75 9.05 19.2 14.15 14.15 19.2 9.05 25.75 6.3 32.55 3.4 40 3.4L40 0Q31.85 0 24.4 3.15 17.25 6.15 11.7 11.7 6.15 17.25 3.15 24.4 0 31.85 0 40 0 48.15 3.15 55.6 6.15 62.75 11.7 68.3 17.25 73.85 24.4 76.85 31.85 80 40 80 48.15 80 55.6 76.85 62.75 73.85 68.3 68.3 73.85 62.75 76.85 55.6 80 48.15 80 40 80 31.85 76.85 24.4 73.85 17.25 68.3 11.7L65.85 14.15Q70.9 19.2 73.7 25.75Z" />
            </g>
            <animate attributeName="display" fill="freeze" repeatCount="1" dur="0.792s"
                keyTimes="0;.368;.421;1" values="none;inline;none;none" />
        </g>
        <g display="none">
            <g id="Layer6_0_FILL">
                <path fill="#FFC107" stroke="none"
                    d="M80 40L76.6 40Q76.6 47.45 73.7 54.2 70.9 60.8 65.85 65.85 60.8 70.95 54.2 73.7 47.4 76.6 40 76.6 32.55 76.6 25.75 73.7 19.2 70.95 14.15 65.85 9.05 60.8 6.3 54.2 3.4 47.45 3.4 40 3.4 32.55 6.3 25.75 9.05 19.2 14.15 14.15 19.2 9.05 25.75 6.3 32.55 3.4 40 3.4L40 0Q31.85 0 24.4 3.15 17.25 6.15 11.7 11.7 6.15 17.25 3.15 24.4 0 31.85 0 40 0 48.15 3.15 55.6 6.15 62.75 11.7 68.3 17.25 73.85 24.4 76.85 31.85 80 40 80 48.15 80 55.6 76.85 62.75 73.85 68.3 68.3 73.85 62.75 76.85 55.6 80 48.15 80 40Z" />
            </g>
            <animate attributeName="display" fill="freeze" repeatCount="1" dur="0.792s"
                keyTimes="0;.316;.368;1" values="none;inline;none;none" />
        </g>
        <g display="none">
            <g id="Layer5_0_FILL">
                <path fill="#FFC107" stroke="none"
                    d="M25.75 6.3Q32.55 3.4 40 3.4L40 0Q31.85 0 24.4 3.15 17.25 6.15 11.7 11.7 6.15 17.25 3.15 24.4 0 31.85 0 40 0 48.15 3.15 55.6 6.15 62.75 11.7 68.3 17.25 73.85 24.4 76.85 31.85 80 40 80 48.15 80 55.6 76.85 62.75 73.85 68.3 68.3L65.85 65.85Q60.8 70.95 54.2 73.7 47.4 76.6 40 76.6 32.55 76.6 25.75 73.7 19.2 70.95 14.15 65.85 9.05 60.8 6.3 54.2 3.4 47.45 3.4 40 3.4 32.55 6.3 25.75 9.05 19.2 14.15 14.15 19.2 9.05 25.75 6.3Z" />
            </g>
            <animate attributeName="display" fill="freeze" repeatCount="1" dur="0.792s"
                keyTimes="0;.263;.316;1" values="none;inline;none;none" />
        </g>
        <g display="none">
            <g id="Layer4_0_FILL">
                <path fill="#FFC107" stroke="none"
                    d="M25.75 6.3Q32.55 3.4 40 3.4L40 0Q31.85 0 24.4 3.15 17.25 6.15 11.7 11.7 6.15 17.25 3.15 24.4 0 31.85 0 40 0 48.15 3.15 55.6 6.15 62.75 11.7 68.3 17.25 73.85 24.4 76.85 31.85 80 40 80L40 76.6Q32.55 76.6 25.75 73.7 19.2 70.95 14.15 65.85 9.05 60.8 6.3 54.2 3.4 47.45 3.4 40 3.4 32.55 6.3 25.75 9.05 19.2 14.15 14.15 19.2 9.05 25.75 6.3Z" />
            </g>
            <animate attributeName="display" fill="freeze" repeatCount="1" dur="0.792s"
                keyTimes="0;.211;.263;1" values="none;inline;none;none" />
        </g>
        <g display="none">
            <g id="Layer3_0_FILL">
                <path fill="#FFC107" stroke="none"
                    d="M40 3.4L40 0Q31.85 0 24.4 3.15 17.25 6.15 11.7 11.7 6.15 17.25 3.15 24.4 0 31.85 0 40 0 42.1 .25 44.2 .35 45.6 .6 47 1.4 51.4 3.15 55.6 6.15 62.75 11.7 68.3L14.15 65.85Q9.05 60.8 6.3 54.2 4.8 50.7 4.1 47 3.8 45.6 3.65 44.2 3.4 42.15 3.4 40 3.4 32.55 6.3 25.75 9.05 19.2 14.15 14.15 19.2 9.05 25.75 6.3 32.55 3.4 40 3.4Z" />
            </g>
            <animate attributeName="display" fill="freeze" repeatCount="1" dur="0.792s"
                keyTimes="0;.158;.211;1" values="none;inline;none;none" />
        </g>
        <g display="none">
            <g id="Layer2_0_FILL">
                <path fill="#FFC107" stroke="none"
                    d="M25.75 6.3Q32.55 3.4 40 3.4L40 0Q31.85 0 24.4 3.15 17.25 6.15 11.7 11.7 6.15 17.25 3.15 24.4 0 31.85 0 40L3.4 40Q3.4 32.55 6.3 25.75 9.05 19.2 14.15 14.15 19.2 9.05 25.75 6.3Z" />
            </g>
            <animate attributeName="display" fill="freeze" repeatCount="1" dur="0.792s"
                keyTimes="0;.105;.158;1" values="none;inline;none;none" />
        </g>
        <g display="none">
            <g id="Layer1_0_FILL">
                <path fill="#FFC107" stroke="none"
                    d="M40 0Q31.85 0 24.4 3.15 17.25 6.15 11.7 11.7L14.15 14.15Q19.2 9.05 25.75 6.3 32.55 3.4 40 3.4L40 0Z" />
            </g>
            <animate attributeName="display" fill="freeze" repeatCount="1" dur="0.792s"
                keyTimes="0;.053;.105;1" values="none;inline;none;none" />
        </g>
        <g>
            <animate attributeName="display" fill="freeze" repeatCount="1" dur="0.792s"
                keyTimes="0;.053;1" values="inline;none;none" />
        </g>
    </g>
</svg>